<svg width="512" height="512" viewBox="0 0 512 512" fill="none" xmlns="http://www.w3.org/2000/svg">
<mask id="mask0_18_51" style="mask-type:alpha" maskUnits="userSpaceOnUse" x="0" y="0" width="512" height="512">
<path d="M0 80C0 51.9974 0 37.9961 5.44967 27.3005C10.2433 17.8924 17.8924 10.2433 27.3005 5.44967C37.9961 0 51.9974 0 80 0H432C460.003 0 474.004 0 484.7 5.44967C494.108 10.2433 501.757 17.8924 506.55 27.3005C512 37.9961 512 51.9974 512 80V432C512 460.003 512 474.004 506.55 484.7C501.757 494.108 494.108 501.757 484.7 506.55C474.004 512 460.003 512 432 512H80C51.9974 512 37.9961 512 27.3005 506.55C17.8924 501.757 10.2433 494.108 5.44967 484.7C0 474.004 0 460.003 0 432V80Z" fill="black"/>
</mask>
<g mask="url(#mask0_18_51)">
<path d="M0 80C0 51.9974 0 37.9961 5.44967 27.3005C10.2433 17.8924 17.8924 10.2433 27.3005 5.44967C37.9961 0 51.9974 0 80 0H432C460.003 0 474.004 0 484.7 5.44967C494.108 10.2433 501.757 17.8924 506.55 27.3005C512 37.9961 512 51.9974 512 80V432C512 460.003 512 474.004 506.55 484.7C501.757 494.108 494.108 501.757 484.7 506.55C474.004 512 460.003 512 432 512H80C51.9974 512 37.9961 512 27.3005 506.55C17.8924 501.757 10.2433 494.108 5.44967 484.7C0 474.004 0 460.003 0 432V80Z" fill="black"/>
<path d="M336.876 180.671C339.167 172.275 340.313 168.076 342.102 167.048C343.645 166.161 345.543 166.161 347.086 167.048C348.874 168.076 350.02 172.275 352.311 180.671L376.546 269.47C380.805 285.073 382.934 292.874 381.647 294.776C380.545 296.406 378.589 297.238 376.651 296.902C374.388 296.509 370.245 289.565 361.958 275.675L351.464 258.085C349.199 254.29 348.067 252.392 346.601 251.749C345.322 251.188 343.866 251.188 342.586 251.749C341.12 252.392 339.988 254.29 337.723 258.085L327.229 275.675C318.942 289.565 314.799 296.509 312.537 296.902C310.598 297.238 308.642 296.407 307.54 294.777C306.254 292.874 308.383 285.073 312.641 269.47L336.876 180.671Z" fill="white"/>
<path d="M364.986 306.892C364.986 323.059 361.74 339.067 355.434 354.004C349.127 368.94 339.883 382.511 328.23 393.943C316.577 405.374 302.743 414.442 287.517 420.629C272.292 426.816 255.973 430 239.493 430C223.013 430 206.695 426.816 191.469 420.629C176.243 414.442 162.409 405.374 150.756 393.943C139.103 382.511 129.859 368.94 123.553 354.004C117.246 339.067 114 323.059 114 306.892L154.25 306.892C154.25 317.874 156.455 328.748 160.739 338.893C165.023 349.039 171.302 358.257 179.217 366.022C187.133 373.787 196.53 379.947 206.872 384.149C217.214 388.352 228.299 390.515 239.493 390.515C250.687 390.515 261.772 388.352 272.114 384.149C282.456 379.947 291.853 373.787 299.769 366.022C307.685 358.257 313.963 349.039 318.247 338.893C322.531 328.748 324.736 317.874 324.736 306.892H364.986Z" fill="white"/>
<path d="M114 144.157C114 133.067 122.99 124.078 134.079 124.078V124.078C145.168 124.078 154.158 133.067 154.158 144.157V307.742C154.158 318.831 145.168 327.821 134.079 327.821V327.821C122.99 327.821 114 318.831 114 307.742V144.157Z" fill="white"/>
<path d="M324.828 141.079C324.828 129.99 333.818 121 344.907 121V121C355.997 121 364.986 129.99 364.986 141.079V304.664C364.986 315.753 355.997 324.743 344.907 324.743V324.743C333.818 324.743 324.828 315.753 324.828 304.664V141.079Z" fill="white"/>
<path d="M327.185 131.029C328.708 126.432 333.683 123.897 338.297 125.368V125.368C342.911 126.839 345.417 131.758 343.894 136.355L285.228 313.478C283.706 318.075 278.731 320.61 274.117 319.139V319.139C269.503 317.668 266.997 312.749 268.519 308.152L327.185 131.029Z" fill="white"/>
<path d="M345.782 137.11C344.259 132.513 346.765 127.594 351.38 126.124V126.124C355.994 124.653 360.968 127.187 362.491 131.785L421.157 308.908C422.68 313.505 420.174 318.424 415.56 319.895V319.895C410.946 321.365 405.971 318.831 404.448 314.234L345.782 137.11Z" fill="white"/>
</g>
</svg>
