<svg width="2339" height="650" viewBox="0 0 2339 650" fill="none" xmlns="http://www.w3.org/2000/svg">
<mask id="path-1-outside-1_57_17" maskUnits="userSpaceOnUse" x="781" y="134" width="1514" height="340" fill="black">
<rect fill="white" x="781" y="134" width="1514" height="340"/>
<path d="M864.032 471.5C846.932 471.5 832.382 467.6 820.382 459.8C808.382 451.7 799.232 440.9 792.932 427.4C786.632 413.9 783.482 399.2 783.482 383.3V255.5C783.482 249.8 785.432 245 789.332 241.1C793.532 237.2 798.482 235.25 804.182 235.25C809.882 235.25 814.682 237.2 818.582 241.1C822.482 245 824.432 249.8 824.432 255.5V378.8C824.432 395.9 828.332 409.4 836.132 419.3C843.932 428.9 856.532 433.7 873.932 433.7C890.132 433.7 904.232 429.35 916.232 420.65C928.232 411.65 938.732 401.6 947.732 390.5V255.5C947.732 249.8 949.682 245 953.582 241.1C957.782 237.2 962.732 235.25 968.432 235.25C974.132 235.25 978.932 237.2 982.832 241.1C986.732 245 988.682 249.8 988.682 255.5V448.55C988.682 454.25 986.732 459.2 982.832 463.4C978.932 467.3 974.132 469.25 968.432 469.25C962.732 469.25 957.782 467.3 953.582 463.4C949.682 459.2 947.732 454.25 947.732 448.55V430.1C938.432 440.3 927.182 449.75 913.982 458.45C900.782 467.15 884.132 471.5 864.032 471.5ZM1080.2 469.25C1074.5 469.25 1069.7 467.3 1065.8 463.4C1061.9 459.5 1059.95 454.7 1059.95 449V255.95C1059.95 249.95 1061.9 245 1065.8 241.1C1069.7 237.2 1074.5 235.25 1080.2 235.25C1085.9 235.25 1090.7 237.2 1094.6 241.1C1098.8 245 1100.9 249.95 1100.9 255.95V274.4C1110.5 263.9 1121.75 254.45 1134.65 246.05C1147.85 237.35 1164.5 233 1184.6 233C1201.7 233 1216.25 237.05 1228.25 245.15C1240.25 252.95 1249.4 263.6 1255.7 277.1C1262 290.3 1265.15 305 1265.15 321.2V449C1265.15 454.7 1263.05 459.5 1258.85 463.4C1254.95 467.3 1250.15 469.25 1244.45 469.25C1238.75 469.25 1233.95 467.3 1230.05 463.4C1226.15 459.5 1224.2 454.7 1224.2 449V325.7C1224.2 308.6 1220.3 295.25 1212.5 285.65C1205 275.75 1192.4 270.8 1174.7 270.8C1158.5 270.8 1144.4 275.15 1132.4 283.85C1120.4 292.55 1109.9 302.6 1100.9 314V449C1100.9 454.7 1098.8 459.5 1094.6 463.4C1090.7 467.3 1085.9 469.25 1080.2 469.25ZM1408.42 471.5C1391.92 471.5 1376.92 469.7 1363.42 466.1C1350.22 462.5 1337.92 457.55 1326.52 451.25C1321.42 447.65 1318.87 442.7 1318.87 436.4C1318.87 431.9 1320.52 427.85 1323.82 424.25C1327.12 420.35 1331.32 418.4 1336.42 418.4C1339.12 418.4 1341.82 419 1344.52 420.2C1352.62 423.8 1361.47 426.95 1371.07 429.65C1380.97 432.35 1392.52 433.7 1405.72 433.7C1423.12 433.7 1435.72 431 1443.52 425.6C1451.62 419.9 1455.67 411.95 1455.67 401.75C1455.67 395.15 1452.37 390.05 1445.77 386.45C1439.47 382.85 1431.07 379.85 1420.57 377.45C1410.37 374.75 1399.57 372.05 1388.17 369.35C1376.77 366.35 1365.82 362.45 1355.32 357.65C1345.12 352.55 1336.72 345.8 1330.12 337.4C1323.82 328.7 1320.67 317.6 1320.67 304.1C1320.67 283.7 1328.02 266.75 1342.72 253.25C1357.42 239.75 1379.32 233 1408.42 233C1420.72 233 1432.27 234.05 1443.07 236.15C1454.17 238.25 1464.37 240.95 1473.67 244.25C1477.87 245.45 1481.02 247.85 1483.12 251.45C1485.52 254.75 1486.72 258.05 1486.72 261.35C1486.72 266.15 1484.92 270.35 1481.32 273.95C1478.02 277.55 1473.82 279.35 1468.72 279.35C1467.52 279.35 1466.47 279.35 1465.57 279.35C1464.67 279.05 1463.77 278.75 1462.87 278.45C1455.67 276.05 1447.72 274.1 1439.02 272.6C1430.62 271.1 1421.47 270.35 1411.57 270.35C1395.07 270.35 1382.32 273.35 1373.32 279.35C1364.32 285.35 1359.82 292.85 1359.82 301.85C1359.82 309.65 1362.97 315.65 1369.27 319.85C1375.87 324.05 1384.27 327.5 1394.47 330.2C1404.97 332.6 1415.92 335.15 1427.32 337.85C1439.02 340.55 1449.97 344.45 1460.17 349.55C1470.67 354.35 1479.07 361.1 1485.37 369.8C1491.97 378.5 1495.27 390.2 1495.27 404.9C1495.27 423.2 1487.92 438.95 1473.22 452.15C1458.82 465.05 1437.22 471.5 1408.42 471.5ZM1652.98 471.5C1616.38 471.5 1587.73 461.15 1567.03 440.45C1546.63 419.45 1536.43 390.05 1536.43 352.25C1536.43 331.85 1540.18 312.65 1547.68 294.65C1555.18 276.35 1566.88 261.5 1582.78 250.1C1598.68 238.7 1619.08 233 1643.98 233C1667.08 233 1686.58 238.4 1702.48 249.2C1718.38 259.7 1730.38 273.5 1738.48 290.6C1746.88 307.7 1751.08 326.3 1751.08 346.4C1751.08 352.1 1749.13 356.9 1745.23 360.8C1741.63 364.7 1736.68 366.65 1730.38 366.65H1577.83C1580.23 386.75 1587.88 402.95 1600.78 415.25C1613.68 427.25 1632.28 433.25 1656.58 433.25C1670.08 433.25 1681.48 432.05 1690.78 429.65C1700.08 426.95 1708.93 423.5 1717.33 419.3C1719.73 418.1 1722.43 417.5 1725.43 417.5C1730.23 417.5 1734.43 419.15 1738.03 422.45C1741.63 425.75 1743.43 429.95 1743.43 435.05C1743.43 438.65 1742.23 441.95 1739.83 444.95C1737.73 447.65 1735.03 449.9 1731.73 451.7C1721.83 457.4 1711.03 462.2 1699.33 466.1C1687.93 469.7 1672.48 471.5 1652.98 471.5ZM1577.83 333.35H1710.58C1709.68 317.75 1705.63 305.15 1698.43 295.55C1691.53 285.95 1683.13 278.9 1673.23 274.4C1663.33 269.9 1653.58 267.65 1643.98 267.65C1634.38 267.65 1624.63 269.9 1614.73 274.4C1604.83 278.9 1596.43 285.95 1589.53 295.55C1582.63 305.15 1578.73 317.75 1577.83 333.35ZM1825.51 469.25C1819.81 469.25 1815.01 467.3 1811.11 463.4C1807.21 459.5 1805.26 454.7 1805.26 449V255.95C1805.26 249.95 1807.21 245 1811.11 241.1C1815.01 237.2 1819.81 235.25 1825.51 235.25C1831.21 235.25 1836.01 237.2 1839.91 241.1C1844.11 245 1846.21 249.95 1846.21 255.95V274.4C1855.81 263.9 1867.06 254.45 1879.96 246.05C1893.16 237.35 1909.81 233 1929.91 233C1947.01 233 1961.56 237.05 1973.56 245.15C1985.56 252.95 1994.71 263.6 2001.01 277.1C2007.31 290.3 2010.46 305 2010.46 321.2V449C2010.46 454.7 2008.36 459.5 2004.16 463.4C2000.26 467.3 1995.46 469.25 1989.76 469.25C1984.06 469.25 1979.26 467.3 1975.36 463.4C1971.46 459.5 1969.51 454.7 1969.51 449V325.7C1969.51 308.6 1965.61 295.25 1957.81 285.65C1950.31 275.75 1937.71 270.8 1920.01 270.8C1903.81 270.8 1889.71 275.15 1877.71 283.85C1865.71 292.55 1855.21 302.6 1846.21 314V449C1846.21 454.7 1844.11 459.5 1839.91 463.4C1836.01 467.3 1831.21 469.25 1825.51 469.25ZM2174.43 471.5C2156.43 471.5 2139.03 466.85 2122.23 457.55C2105.73 448.25 2092.08 434.75 2081.28 417.05C2070.78 399.35 2065.53 377.75 2065.53 352.25C2065.53 326.75 2070.78 305.15 2081.28 287.45C2092.08 269.75 2105.73 256.25 2122.23 246.95C2139.03 237.65 2156.43 233 2174.43 233C2190.33 233 2204.58 236 2217.18 242C2229.78 248 2241.18 256.4 2251.38 267.2V156.95C2251.38 150.95 2253.33 146 2257.23 142.1C2261.43 138.2 2266.38 136.25 2272.08 136.25C2277.78 136.25 2282.58 138.2 2286.48 142.1C2290.38 146 2292.33 150.95 2292.33 156.95V449C2292.33 454.7 2290.38 459.5 2286.48 463.4C2282.58 467.3 2277.78 469.25 2272.08 469.25C2266.38 469.25 2261.43 467.3 2257.23 463.4C2253.33 459.5 2251.38 454.7 2251.38 449V437.3C2241.18 448.1 2229.78 456.5 2217.18 462.5C2204.58 468.5 2190.33 471.5 2174.43 471.5ZM2180.28 433.25C2194.98 433.25 2208.33 430.1 2220.33 423.8C2232.33 417.2 2242.68 409.1 2251.38 399.5V305C2242.68 295.4 2232.33 287.45 2220.33 281.15C2208.33 274.55 2194.98 271.25 2180.28 271.25C2158.98 271.25 2141.28 278.15 2127.18 291.95C2113.38 305.45 2106.48 325.55 2106.48 352.25C2106.48 378.65 2113.38 398.75 2127.18 412.55C2141.28 426.35 2158.98 433.25 2180.28 433.25Z"/>
</mask>
<path d="M864.032 471.5C846.932 471.5 832.382 467.6 820.382 459.8C808.382 451.7 799.232 440.9 792.932 427.4C786.632 413.9 783.482 399.2 783.482 383.3V255.5C783.482 249.8 785.432 245 789.332 241.1C793.532 237.2 798.482 235.25 804.182 235.25C809.882 235.25 814.682 237.2 818.582 241.1C822.482 245 824.432 249.8 824.432 255.5V378.8C824.432 395.9 828.332 409.4 836.132 419.3C843.932 428.9 856.532 433.7 873.932 433.7C890.132 433.7 904.232 429.35 916.232 420.65C928.232 411.65 938.732 401.6 947.732 390.5V255.5C947.732 249.8 949.682 245 953.582 241.1C957.782 237.2 962.732 235.25 968.432 235.25C974.132 235.25 978.932 237.2 982.832 241.1C986.732 245 988.682 249.8 988.682 255.5V448.55C988.682 454.25 986.732 459.2 982.832 463.4C978.932 467.3 974.132 469.25 968.432 469.25C962.732 469.25 957.782 467.3 953.582 463.4C949.682 459.2 947.732 454.25 947.732 448.55V430.1C938.432 440.3 927.182 449.75 913.982 458.45C900.782 467.15 884.132 471.5 864.032 471.5ZM1080.2 469.25C1074.5 469.25 1069.7 467.3 1065.8 463.4C1061.9 459.5 1059.95 454.7 1059.95 449V255.95C1059.95 249.95 1061.9 245 1065.8 241.1C1069.7 237.2 1074.5 235.25 1080.2 235.25C1085.9 235.25 1090.7 237.2 1094.6 241.1C1098.8 245 1100.9 249.95 1100.9 255.95V274.4C1110.5 263.9 1121.75 254.45 1134.65 246.05C1147.85 237.35 1164.5 233 1184.6 233C1201.7 233 1216.25 237.05 1228.25 245.15C1240.25 252.95 1249.4 263.6 1255.7 277.1C1262 290.3 1265.15 305 1265.15 321.2V449C1265.15 454.7 1263.05 459.5 1258.85 463.4C1254.95 467.3 1250.15 469.25 1244.45 469.25C1238.75 469.25 1233.95 467.3 1230.05 463.4C1226.15 459.5 1224.2 454.7 1224.2 449V325.7C1224.2 308.6 1220.3 295.25 1212.5 285.65C1205 275.75 1192.4 270.8 1174.7 270.8C1158.5 270.8 1144.4 275.15 1132.4 283.85C1120.4 292.55 1109.9 302.6 1100.9 314V449C1100.9 454.7 1098.8 459.5 1094.6 463.4C1090.7 467.3 1085.9 469.25 1080.2 469.25ZM1408.42 471.5C1391.92 471.5 1376.92 469.7 1363.42 466.1C1350.22 462.5 1337.92 457.55 1326.52 451.25C1321.42 447.65 1318.87 442.7 1318.87 436.4C1318.87 431.9 1320.52 427.85 1323.82 424.25C1327.12 420.35 1331.32 418.4 1336.42 418.4C1339.12 418.4 1341.82 419 1344.52 420.2C1352.62 423.8 1361.47 426.95 1371.07 429.65C1380.97 432.35 1392.52 433.7 1405.72 433.7C1423.12 433.7 1435.72 431 1443.52 425.6C1451.62 419.9 1455.67 411.95 1455.67 401.75C1455.67 395.15 1452.37 390.05 1445.77 386.45C1439.47 382.85 1431.07 379.85 1420.57 377.45C1410.37 374.75 1399.57 372.05 1388.17 369.35C1376.77 366.35 1365.82 362.45 1355.32 357.65C1345.12 352.55 1336.72 345.8 1330.12 337.4C1323.82 328.7 1320.67 317.6 1320.67 304.1C1320.67 283.7 1328.02 266.75 1342.72 253.25C1357.42 239.75 1379.32 233 1408.42 233C1420.72 233 1432.27 234.05 1443.07 236.15C1454.17 238.25 1464.37 240.95 1473.67 244.25C1477.87 245.45 1481.02 247.85 1483.12 251.45C1485.52 254.75 1486.72 258.05 1486.72 261.35C1486.72 266.15 1484.92 270.35 1481.32 273.95C1478.02 277.55 1473.82 279.35 1468.72 279.35C1467.52 279.35 1466.47 279.35 1465.57 279.35C1464.67 279.05 1463.77 278.75 1462.87 278.45C1455.67 276.05 1447.72 274.1 1439.02 272.6C1430.62 271.1 1421.47 270.35 1411.57 270.35C1395.07 270.35 1382.32 273.35 1373.32 279.35C1364.32 285.35 1359.82 292.85 1359.82 301.85C1359.82 309.65 1362.97 315.65 1369.27 319.85C1375.87 324.05 1384.27 327.5 1394.47 330.2C1404.97 332.6 1415.92 335.15 1427.32 337.85C1439.02 340.55 1449.97 344.45 1460.17 349.55C1470.67 354.35 1479.07 361.1 1485.37 369.8C1491.97 378.5 1495.27 390.2 1495.27 404.9C1495.27 423.2 1487.92 438.95 1473.22 452.15C1458.82 465.05 1437.22 471.5 1408.42 471.5ZM1652.98 471.5C1616.38 471.5 1587.73 461.15 1567.03 440.45C1546.63 419.45 1536.43 390.05 1536.43 352.25C1536.43 331.85 1540.18 312.65 1547.68 294.65C1555.18 276.35 1566.88 261.5 1582.78 250.1C1598.68 238.7 1619.08 233 1643.98 233C1667.08 233 1686.58 238.4 1702.48 249.2C1718.38 259.7 1730.38 273.5 1738.48 290.6C1746.88 307.7 1751.08 326.3 1751.08 346.4C1751.08 352.1 1749.13 356.9 1745.23 360.8C1741.63 364.7 1736.68 366.65 1730.38 366.65H1577.83C1580.23 386.75 1587.88 402.95 1600.78 415.25C1613.68 427.25 1632.28 433.25 1656.58 433.25C1670.08 433.25 1681.48 432.05 1690.78 429.65C1700.08 426.95 1708.93 423.5 1717.33 419.3C1719.73 418.1 1722.43 417.5 1725.43 417.5C1730.23 417.5 1734.43 419.15 1738.03 422.45C1741.63 425.75 1743.43 429.95 1743.43 435.05C1743.43 438.65 1742.23 441.95 1739.83 444.95C1737.73 447.65 1735.03 449.9 1731.73 451.7C1721.83 457.4 1711.03 462.2 1699.33 466.1C1687.93 469.7 1672.48 471.5 1652.98 471.5ZM1577.83 333.35H1710.58C1709.68 317.75 1705.63 305.15 1698.43 295.55C1691.53 285.95 1683.13 278.9 1673.23 274.4C1663.33 269.9 1653.58 267.65 1643.98 267.65C1634.38 267.65 1624.63 269.9 1614.73 274.4C1604.83 278.9 1596.43 285.95 1589.53 295.55C1582.63 305.15 1578.73 317.75 1577.83 333.35ZM1825.51 469.25C1819.81 469.25 1815.01 467.3 1811.11 463.4C1807.21 459.5 1805.26 454.7 1805.26 449V255.95C1805.26 249.95 1807.21 245 1811.11 241.1C1815.01 237.2 1819.81 235.25 1825.51 235.25C1831.21 235.25 1836.01 237.2 1839.91 241.1C1844.11 245 1846.21 249.95 1846.21 255.95V274.4C1855.81 263.9 1867.06 254.45 1879.96 246.05C1893.16 237.35 1909.81 233 1929.91 233C1947.01 233 1961.56 237.05 1973.56 245.15C1985.56 252.95 1994.71 263.6 2001.01 277.1C2007.31 290.3 2010.46 305 2010.46 321.2V449C2010.46 454.7 2008.36 459.5 2004.16 463.4C2000.26 467.3 1995.46 469.25 1989.76 469.25C1984.06 469.25 1979.26 467.3 1975.36 463.4C1971.46 459.5 1969.51 454.7 1969.51 449V325.7C1969.51 308.6 1965.61 295.25 1957.81 285.65C1950.31 275.75 1937.71 270.8 1920.01 270.8C1903.81 270.8 1889.71 275.15 1877.71 283.85C1865.71 292.55 1855.21 302.6 1846.21 314V449C1846.21 454.7 1844.11 459.5 1839.91 463.4C1836.01 467.3 1831.21 469.25 1825.51 469.25ZM2174.43 471.5C2156.43 471.5 2139.03 466.85 2122.23 457.55C2105.73 448.25 2092.08 434.75 2081.28 417.05C2070.78 399.35 2065.53 377.75 2065.53 352.25C2065.53 326.75 2070.78 305.15 2081.28 287.45C2092.08 269.75 2105.73 256.25 2122.23 246.95C2139.03 237.65 2156.43 233 2174.43 233C2190.33 233 2204.58 236 2217.18 242C2229.78 248 2241.18 256.4 2251.38 267.2V156.95C2251.38 150.95 2253.33 146 2257.23 142.1C2261.43 138.2 2266.38 136.25 2272.08 136.25C2277.78 136.25 2282.58 138.2 2286.48 142.1C2290.38 146 2292.33 150.95 2292.33 156.95V449C2292.33 454.7 2290.38 459.5 2286.48 463.4C2282.58 467.3 2277.78 469.25 2272.08 469.25C2266.38 469.25 2261.43 467.3 2257.23 463.4C2253.33 459.5 2251.38 454.7 2251.38 449V437.3C2241.18 448.1 2229.78 456.5 2217.18 462.5C2204.58 468.5 2190.33 471.5 2174.43 471.5ZM2180.28 433.25C2194.98 433.25 2208.33 430.1 2220.33 423.8C2232.33 417.2 2242.68 409.1 2251.38 399.5V305C2242.68 295.4 2232.33 287.45 2220.33 281.15C2208.33 274.55 2194.98 271.25 2180.28 271.25C2158.98 271.25 2141.28 278.15 2127.18 291.95C2113.38 305.45 2106.48 325.55 2106.48 352.25C2106.48 378.65 2113.38 398.75 2127.18 412.55C2141.28 426.35 2158.98 433.25 2180.28 433.25Z" fill="white"/>
<path d="M820.382 459.8L819.263 461.458L819.277 461.467L819.292 461.477L820.382 459.8ZM792.932 427.4L794.744 426.554L794.744 426.554L792.932 427.4ZM789.332 241.1L787.971 239.634L787.944 239.66L787.917 239.686L789.332 241.1ZM818.582 241.1L819.996 239.686L818.582 241.1ZM836.132 419.3L834.561 420.538L834.57 420.55L834.579 420.561L836.132 419.3ZM916.232 420.65L917.406 422.269L917.419 422.26L917.432 422.25L916.232 420.65ZM947.732 390.5L949.285 391.76L949.732 391.209V390.5H947.732ZM953.582 241.1L952.221 239.634L952.194 239.66L952.167 239.686L953.582 241.1ZM982.832 241.1L984.246 239.686L982.832 241.1ZM982.832 463.4L984.246 464.814L984.272 464.788L984.297 464.761L982.832 463.4ZM953.582 463.4L952.116 464.761L952.166 464.815L952.221 464.866L953.582 463.4ZM947.732 430.1H949.732V424.938L946.254 428.752L947.732 430.1ZM913.982 458.45L912.881 456.78L912.881 456.78L913.982 458.45ZM864.032 469.5C847.242 469.5 833.089 465.674 821.472 458.123L819.292 461.477C831.675 469.526 846.621 473.5 864.032 473.5V469.5ZM821.501 458.142C809.81 450.251 800.895 439.736 794.744 426.554L791.119 428.246C797.568 442.064 806.953 453.149 819.263 461.458L821.501 458.142ZM794.744 426.554C788.576 413.337 785.482 398.928 785.482 383.3H781.482C781.482 399.472 784.687 414.463 791.119 428.246L794.744 426.554ZM785.482 383.3V255.5H781.482V383.3H785.482ZM785.482 255.5C785.482 250.311 787.235 246.025 790.746 242.514L787.917 239.686C783.629 243.975 781.482 249.289 781.482 255.5H785.482ZM790.693 242.566C794.525 239.007 798.99 237.25 804.182 237.25V233.25C797.974 233.25 792.538 235.393 787.971 239.634L790.693 242.566ZM804.182 237.25C809.371 237.25 813.656 239.003 817.167 242.514L819.996 239.686C815.707 235.397 810.392 233.25 804.182 233.25V237.25ZM817.167 242.514C820.679 246.025 822.432 250.311 822.432 255.5H826.432C826.432 249.289 824.285 243.975 819.996 239.686L817.167 242.514ZM822.432 255.5V378.8H826.432V255.5H822.432ZM822.432 378.8C822.432 396.19 826.398 410.178 834.561 420.538L837.703 418.062C830.265 408.622 826.432 395.61 826.432 378.8H822.432ZM834.579 420.561C842.896 430.797 856.186 435.7 873.932 435.7V431.7C856.877 431.7 844.967 427.003 837.684 418.039L834.579 420.561ZM873.932 435.7C890.512 435.7 905.032 431.24 917.406 422.269L915.058 419.031C903.431 427.46 889.751 431.7 873.932 431.7V435.7ZM917.432 422.25C929.556 413.156 940.177 402.993 949.285 391.76L946.178 389.24C937.287 400.207 926.907 410.144 915.032 419.05L917.432 422.25ZM949.732 390.5V255.5H945.732V390.5H949.732ZM949.732 255.5C949.732 250.311 951.485 246.025 954.996 242.514L952.167 239.686C947.879 243.975 945.732 249.289 945.732 255.5H949.732ZM954.943 242.566C958.775 239.007 963.24 237.25 968.432 237.25V233.25C962.224 233.25 956.788 235.393 952.221 239.634L954.943 242.566ZM968.432 237.25C973.621 237.25 977.906 239.003 981.417 242.514L984.246 239.686C979.957 235.397 974.642 233.25 968.432 233.25V237.25ZM981.417 242.514C984.929 246.025 986.682 250.311 986.682 255.5H990.682C990.682 249.289 988.535 243.975 984.246 239.686L981.417 242.514ZM986.682 255.5V448.55H990.682V255.5H986.682ZM986.682 448.55C986.682 453.742 984.925 458.207 981.366 462.039L984.297 464.761C988.539 460.193 990.682 454.758 990.682 448.55H986.682ZM981.417 461.986C977.906 465.497 973.621 467.25 968.432 467.25V471.25C974.642 471.25 979.957 469.103 984.246 464.814L981.417 461.986ZM968.432 467.25C963.24 467.25 958.775 465.493 954.943 461.934L952.221 464.866C956.788 469.107 962.224 471.25 968.432 471.25V467.25ZM955.047 462.039C951.489 458.207 949.732 453.742 949.732 448.55H945.732C945.732 454.758 947.875 460.193 952.116 464.761L955.047 462.039ZM949.732 448.55V430.1H945.732V448.55H949.732ZM946.254 428.752C937.08 438.814 925.962 448.159 912.881 456.78L915.082 460.12C928.401 451.341 939.783 441.786 949.21 431.448L946.254 428.752ZM912.881 456.78C900.086 465.213 883.846 469.5 864.032 469.5V473.5C884.417 473.5 901.477 469.087 915.082 460.12L912.881 456.78ZM1065.8 463.4L1067.21 461.986L1067.21 461.986L1065.8 463.4ZM1065.8 241.1L1067.21 242.514L1067.21 242.514L1065.8 241.1ZM1094.6 241.1L1093.19 242.514L1093.21 242.54L1093.24 242.566L1094.6 241.1ZM1100.9 274.4H1098.9V279.551L1102.38 275.75L1100.9 274.4ZM1134.65 246.05L1135.74 247.726L1135.75 247.72L1134.65 246.05ZM1228.25 245.15L1227.13 246.808L1227.15 246.817L1227.16 246.827L1228.25 245.15ZM1255.7 277.1L1253.89 277.946L1253.89 277.954L1253.9 277.961L1255.7 277.1ZM1258.85 463.4L1257.49 461.934L1257.46 461.96L1257.44 461.986L1258.85 463.4ZM1230.05 463.4L1228.64 464.814L1228.64 464.814L1230.05 463.4ZM1212.5 285.65L1210.91 286.858L1210.93 286.885L1210.95 286.911L1212.5 285.65ZM1132.4 283.85L1133.57 285.469L1133.57 285.469L1132.4 283.85ZM1100.9 314L1099.33 312.761L1098.9 313.306V314H1100.9ZM1094.6 463.4L1093.24 461.934L1093.21 461.96L1093.19 461.986L1094.6 463.4ZM1080.2 467.25C1075.01 467.25 1070.73 465.497 1067.21 461.986L1064.39 464.814C1068.68 469.103 1073.99 471.25 1080.2 471.25V467.25ZM1067.21 461.986C1063.7 458.475 1061.95 454.189 1061.95 449H1057.95C1057.95 455.211 1060.1 460.525 1064.39 464.814L1067.21 461.986ZM1061.95 449V255.95H1057.95V449H1061.95ZM1061.95 255.95C1061.95 250.429 1063.72 246.004 1067.21 242.514L1064.39 239.686C1060.08 243.996 1057.95 249.471 1057.95 255.95H1061.95ZM1067.21 242.514C1070.73 239.003 1075.01 237.25 1080.2 237.25V233.25C1073.99 233.25 1068.68 235.397 1064.39 239.686L1067.21 242.514ZM1080.2 237.25C1085.39 237.25 1089.68 239.003 1093.19 242.514L1096.01 239.686C1091.73 235.397 1086.41 233.25 1080.2 233.25V237.25ZM1093.24 242.566C1097.01 246.068 1098.9 250.477 1098.9 255.95H1102.9C1102.9 249.423 1100.59 243.932 1095.96 239.634L1093.24 242.566ZM1098.9 255.95V274.4H1102.9V255.95H1098.9ZM1102.38 275.75C1111.85 265.384 1122.97 256.041 1135.74 247.726L1133.56 244.374C1120.53 252.859 1109.15 262.416 1099.42 273.05L1102.38 275.75ZM1135.75 247.72C1148.55 239.287 1164.79 235 1184.6 235V231C1164.21 231 1147.15 235.413 1133.55 244.38L1135.75 247.72ZM1184.6 235C1201.38 235 1215.52 238.969 1227.13 246.808L1229.37 243.492C1216.98 235.131 1202.03 231 1184.6 231V235ZM1227.16 246.827C1238.83 254.414 1247.74 264.77 1253.89 277.946L1257.51 276.254C1251.06 262.43 1241.67 251.486 1229.34 243.473L1227.16 246.827ZM1253.9 277.961C1260.05 290.865 1263.15 305.266 1263.15 321.2H1267.15C1267.15 304.734 1263.95 289.735 1257.51 276.239L1253.9 277.961ZM1263.15 321.2V449H1267.15V321.2H1263.15ZM1263.15 449C1263.15 454.14 1261.28 458.41 1257.49 461.934L1260.21 464.866C1264.82 460.59 1267.15 455.26 1267.15 449H1263.15ZM1257.44 461.986C1253.93 465.497 1249.64 467.25 1244.45 467.25V471.25C1250.66 471.25 1255.98 469.103 1260.26 464.814L1257.44 461.986ZM1244.45 467.25C1239.26 467.25 1234.98 465.497 1231.46 461.986L1228.64 464.814C1232.93 469.103 1238.24 471.25 1244.45 471.25V467.25ZM1231.46 461.986C1227.95 458.475 1226.2 454.189 1226.2 449H1222.2C1222.2 455.211 1224.35 460.525 1228.64 464.814L1231.46 461.986ZM1226.2 449V325.7H1222.2V449H1226.2ZM1226.2 325.7C1226.2 308.315 1222.24 294.46 1214.05 284.389L1210.95 286.911C1218.37 296.04 1222.2 308.885 1222.2 325.7H1226.2ZM1214.09 284.442C1206.07 273.855 1192.75 268.8 1174.7 268.8V272.8C1192.06 272.8 1203.93 277.645 1210.91 286.858L1214.09 284.442ZM1174.7 268.8C1158.12 268.8 1143.6 273.26 1131.23 282.231L1133.57 285.469C1145.2 277.04 1158.88 272.8 1174.7 272.8V268.8ZM1131.23 282.231C1119.08 291.036 1108.45 301.214 1099.33 312.761L1102.47 315.239C1111.35 303.986 1121.72 294.064 1133.57 285.469L1131.23 282.231ZM1098.9 314V449H1102.9V314H1098.9ZM1098.9 449C1098.9 454.14 1097.03 458.41 1093.24 461.934L1095.96 464.866C1100.57 460.59 1102.9 455.26 1102.9 449H1098.9ZM1093.19 461.986C1089.68 465.497 1085.39 467.25 1080.2 467.25V471.25C1086.41 471.25 1091.73 469.103 1096.01 464.814L1093.19 461.986ZM1363.42 466.1L1362.89 468.03L1362.9 468.032L1363.42 466.1ZM1326.52 451.25L1325.37 452.884L1325.46 452.947L1325.55 453L1326.52 451.25ZM1323.82 424.25L1325.29 425.601L1325.32 425.572L1325.35 425.542L1323.82 424.25ZM1344.52 420.2L1343.71 422.028L1343.71 422.028L1344.52 420.2ZM1371.07 429.65L1370.53 431.575L1370.54 431.577L1370.54 431.58L1371.07 429.65ZM1443.52 425.6L1444.66 427.244L1444.66 427.24L1444.67 427.236L1443.52 425.6ZM1445.77 386.45L1444.78 388.186L1444.79 388.196L1444.81 388.206L1445.77 386.45ZM1420.57 377.45L1420.06 379.383L1420.09 379.392L1420.12 379.4L1420.57 377.45ZM1388.17 369.35L1387.66 371.284L1387.68 371.29L1387.71 371.296L1388.17 369.35ZM1355.32 357.65L1354.42 359.439L1354.46 359.454L1354.49 359.469L1355.32 357.65ZM1330.12 337.4L1328.5 338.573L1328.52 338.605L1328.55 338.636L1330.12 337.4ZM1342.72 253.25L1344.07 254.723L1344.07 254.723L1342.72 253.25ZM1443.07 236.15L1442.69 238.113L1442.7 238.115L1443.07 236.15ZM1473.67 244.25L1473 246.135L1473.06 246.156L1473.12 246.173L1473.67 244.25ZM1483.12 251.45L1481.39 252.458L1481.44 252.545L1481.5 252.626L1483.12 251.45ZM1481.32 273.95L1479.9 272.536L1479.87 272.567L1479.84 272.599L1481.32 273.95ZM1465.57 279.35L1464.94 281.247L1465.24 281.35H1465.57V279.35ZM1462.87 278.45L1463.5 276.553L1463.5 276.553L1462.87 278.45ZM1439.02 272.6L1438.67 274.569L1438.68 274.571L1439.02 272.6ZM1373.32 279.35L1372.21 277.686L1372.21 277.686L1373.32 279.35ZM1369.27 319.85L1368.16 321.514L1368.18 321.526L1368.2 321.537L1369.27 319.85ZM1394.47 330.2L1393.96 332.133L1393.99 332.142L1394.02 332.15L1394.47 330.2ZM1427.32 337.85L1426.86 339.796L1426.87 339.799L1427.32 337.85ZM1460.17 349.55L1459.27 351.339L1459.31 351.354L1459.34 351.369L1460.17 349.55ZM1485.37 369.8L1483.75 370.973L1483.76 370.991L1483.78 371.009L1485.37 369.8ZM1473.22 452.15L1474.55 453.64L1474.56 453.638L1473.22 452.15ZM1408.42 469.5C1392.06 469.5 1377.24 467.715 1363.93 464.168L1362.9 468.032C1376.6 471.685 1391.78 473.5 1408.42 473.5V469.5ZM1363.95 464.17C1350.89 460.61 1338.74 455.719 1327.49 449.5L1325.55 453C1337.1 459.381 1349.55 464.39 1362.89 468.03L1363.95 464.17ZM1327.67 449.616C1323.11 446.395 1320.87 442.057 1320.87 436.4H1316.87C1316.87 443.343 1319.73 448.905 1325.37 452.884L1327.67 449.616ZM1320.87 436.4C1320.87 432.445 1322.3 428.867 1325.29 425.601L1322.34 422.899C1318.74 426.833 1316.87 431.355 1316.87 436.4H1320.87ZM1325.35 425.542C1328.27 422.09 1331.91 420.4 1336.42 420.4V416.4C1330.73 416.4 1325.97 418.61 1322.29 422.958L1325.35 425.542ZM1336.42 420.4C1338.81 420.4 1341.24 420.93 1343.71 422.028L1345.33 418.372C1342.4 417.07 1339.42 416.4 1336.42 416.4V420.4ZM1343.71 422.028C1351.9 425.671 1360.85 428.852 1370.53 431.575L1371.61 427.725C1362.09 425.048 1353.33 421.929 1345.33 418.372L1343.71 422.028ZM1370.54 431.58C1380.66 434.337 1392.39 435.7 1405.72 435.7V431.7C1392.65 431.7 1381.28 430.363 1371.6 427.72L1370.54 431.58ZM1405.72 435.7C1423.23 435.7 1436.34 433 1444.66 427.244L1442.38 423.956C1435.09 429 1423.01 431.7 1405.72 431.7V435.7ZM1444.67 427.236C1453.32 421.148 1457.67 412.578 1457.67 401.75H1453.67C1453.67 411.322 1449.92 418.652 1442.37 423.964L1444.67 427.236ZM1457.67 401.75C1457.67 394.302 1453.86 388.586 1446.73 384.694L1444.81 388.206C1450.88 391.514 1453.67 395.998 1453.67 401.75H1457.67ZM1446.76 384.714C1440.23 380.981 1431.62 377.925 1421.01 375.5L1420.12 379.4C1430.52 381.775 1438.71 384.719 1444.78 388.186L1446.76 384.714ZM1421.08 375.517C1410.86 372.812 1400.05 370.107 1388.63 367.404L1387.71 371.296C1399.09 373.993 1409.88 376.688 1420.06 379.383L1421.08 375.517ZM1388.68 367.416C1377.39 364.444 1366.54 360.583 1356.15 355.831L1354.49 359.469C1365.09 364.317 1376.15 368.256 1387.66 371.284L1388.68 367.416ZM1356.21 355.861C1346.26 350.884 1338.1 344.317 1331.69 336.164L1328.55 338.636C1335.34 347.283 1343.98 354.216 1354.42 359.439L1356.21 355.861ZM1331.74 336.227C1325.74 327.947 1322.67 317.288 1322.67 304.1H1318.67C1318.67 317.912 1321.9 329.453 1328.5 338.573L1331.74 336.227ZM1322.67 304.1C1322.67 284.246 1329.79 267.835 1344.07 254.723L1341.37 251.777C1326.24 265.665 1318.67 283.154 1318.67 304.1H1322.67ZM1344.07 254.723C1358.26 241.689 1379.59 235 1408.42 235V231C1379.04 231 1356.57 237.811 1341.37 251.777L1344.07 254.723ZM1408.42 235C1420.61 235 1432.03 236.04 1442.69 238.113L1443.45 234.187C1432.51 232.06 1420.83 231 1408.42 231V235ZM1442.7 238.115C1453.71 240.199 1463.81 242.874 1473 246.135L1474.34 242.365C1464.93 239.026 1454.63 236.301 1443.44 234.185L1442.7 238.115ZM1473.12 246.173C1476.85 247.239 1479.57 249.327 1481.39 252.458L1484.85 250.442C1482.47 246.373 1478.89 243.661 1474.22 242.327L1473.12 246.173ZM1481.5 252.626C1483.71 255.667 1484.72 258.564 1484.72 261.35H1488.72C1488.72 257.536 1487.33 253.833 1484.74 250.274L1481.5 252.626ZM1484.72 261.35C1484.72 265.585 1483.16 269.286 1479.9 272.536L1482.73 275.364C1486.68 271.414 1488.72 266.715 1488.72 261.35H1484.72ZM1479.84 272.599C1476.94 275.765 1473.29 277.35 1468.72 277.35V281.35C1474.35 281.35 1479.1 279.335 1482.79 275.301L1479.84 272.599ZM1468.72 277.35C1468.72 277.35 1468.71 277.35 1468.71 277.35C1468.71 277.35 1468.71 277.35 1468.71 277.35C1468.7 277.35 1468.7 277.35 1468.7 277.35C1468.7 277.35 1468.69 277.35 1468.69 277.35C1468.69 277.35 1468.69 277.35 1468.68 277.35C1468.68 277.35 1468.68 277.35 1468.68 277.35C1468.67 277.35 1468.67 277.35 1468.67 277.35C1468.67 277.35 1468.67 277.35 1468.66 277.35C1468.66 277.35 1468.66 277.35 1468.66 277.35C1468.65 277.35 1468.65 277.35 1468.65 277.35C1468.65 277.35 1468.64 277.35 1468.64 277.35C1468.64 277.35 1468.64 277.35 1468.64 277.35C1468.63 277.35 1468.63 277.35 1468.63 277.35C1468.63 277.35 1468.62 277.35 1468.62 277.35C1468.62 277.35 1468.62 277.35 1468.61 277.35C1468.61 277.35 1468.61 277.35 1468.61 277.35C1468.6 277.35 1468.6 277.35 1468.6 277.35C1468.6 277.35 1468.6 277.35 1468.59 277.35C1468.59 277.35 1468.59 277.35 1468.59 277.35C1468.58 277.35 1468.58 277.35 1468.58 277.35C1468.58 277.35 1468.57 277.35 1468.57 277.35C1468.57 277.35 1468.57 277.35 1468.57 277.35C1468.56 277.35 1468.56 277.35 1468.56 277.35C1468.56 277.35 1468.55 277.35 1468.55 277.35C1468.55 277.35 1468.55 277.35 1468.54 277.35C1468.54 277.35 1468.54 277.35 1468.54 277.35C1468.54 277.35 1468.53 277.35 1468.53 277.35C1468.53 277.35 1468.53 277.35 1468.52 277.35C1468.52 277.35 1468.52 277.35 1468.52 277.35C1468.51 277.35 1468.51 277.35 1468.51 277.35C1468.51 277.35 1468.51 277.35 1468.5 277.35C1468.5 277.35 1468.5 277.35 1468.5 277.35C1468.49 277.35 1468.49 277.35 1468.49 277.35C1468.49 277.35 1468.48 277.35 1468.48 277.35C1468.48 277.35 1468.48 277.35 1468.48 277.35C1468.47 277.35 1468.47 277.35 1468.47 277.35C1468.47 277.35 1468.46 277.35 1468.46 277.35C1468.46 277.35 1468.46 277.35 1468.45 277.35C1468.45 277.35 1468.45 277.35 1468.45 277.35C1468.45 277.35 1468.44 277.35 1468.44 277.35C1468.44 277.35 1468.44 277.35 1468.43 277.35C1468.43 277.35 1468.43 277.35 1468.43 277.35C1468.42 277.35 1468.42 277.35 1468.42 277.35C1468.42 277.35 1468.42 277.35 1468.41 277.35C1468.41 277.35 1468.41 277.35 1468.41 277.35C1468.4 277.35 1468.4 277.35 1468.4 277.35C1468.4 277.35 1468.39 277.35 1468.39 277.35C1468.39 277.35 1468.39 277.35 1468.39 277.35C1468.38 277.35 1468.38 277.35 1468.38 277.35C1468.38 277.35 1468.37 277.35 1468.37 277.35C1468.37 277.35 1468.37 277.35 1468.37 277.35C1468.36 277.35 1468.36 277.35 1468.36 277.35C1468.36 277.35 1468.35 277.35 1468.35 277.35C1468.35 277.35 1468.35 277.35 1468.34 277.35C1468.34 277.35 1468.34 277.35 1468.34 277.35C1468.34 277.35 1468.33 277.35 1468.33 277.35C1468.33 277.35 1468.33 277.35 1468.32 277.35C1468.32 277.35 1468.32 277.35 1468.32 277.35C1468.31 277.35 1468.31 277.35 1468.31 277.35C1468.31 277.35 1468.31 277.35 1468.3 277.35C1468.3 277.35 1468.3 277.35 1468.3 277.35C1468.29 277.35 1468.29 277.35 1468.29 277.35C1468.29 277.35 1468.29 277.35 1468.28 277.35C1468.28 277.35 1468.28 277.35 1468.28 277.35C1468.27 277.35 1468.27 277.35 1468.27 277.35C1468.27 277.35 1468.26 277.35 1468.26 277.35C1468.26 277.35 1468.26 277.35 1468.26 277.35C1468.25 277.35 1468.25 277.35 1468.25 277.35C1468.25 277.35 1468.24 277.35 1468.24 277.35C1468.24 277.35 1468.24 277.35 1468.24 277.35C1468.23 277.35 1468.23 277.35 1468.23 277.35C1468.23 277.35 1468.22 277.35 1468.22 277.35C1468.22 277.35 1468.22 277.35 1468.22 277.35C1468.21 277.35 1468.21 277.35 1468.21 277.35C1468.21 277.35 1468.2 277.35 1468.2 277.35C1468.2 277.35 1468.2 277.35 1468.19 277.35C1468.19 277.35 1468.19 277.35 1468.19 277.35C1468.19 277.35 1468.18 277.35 1468.18 277.35C1468.18 277.35 1468.18 277.35 1468.17 277.35C1468.17 277.35 1468.17 277.35 1468.17 277.35C1468.17 277.35 1468.16 277.35 1468.16 277.35C1468.16 277.35 1468.16 277.35 1468.15 277.35C1468.15 277.35 1468.15 277.35 1468.15 277.35C1468.15 277.35 1468.14 277.35 1468.14 277.35C1468.14 277.35 1468.14 277.35 1468.13 277.35C1468.13 277.35 1468.13 277.35 1468.13 277.35C1468.12 277.35 1468.12 277.35 1468.12 277.35C1468.12 277.35 1468.12 277.35 1468.11 277.35C1468.11 277.35 1468.11 277.35 1468.11 277.35C1468.1 277.35 1468.1 277.35 1468.1 277.35C1468.1 277.35 1468.1 277.35 1468.09 277.35C1468.09 277.35 1468.09 277.35 1468.09 277.35C1468.08 277.35 1468.08 277.35 1468.08 277.35C1468.08 277.35 1468.08 277.35 1468.07 277.35C1468.07 277.35 1468.07 277.35 1468.07 277.35C1468.06 277.35 1468.06 277.35 1468.06 277.35C1468.06 277.35 1468.06 277.35 1468.05 277.35C1468.05 277.35 1468.05 277.35 1468.05 277.35C1468.04 277.35 1468.04 277.35 1468.04 277.35C1468.04 277.35 1468.04 277.35 1468.03 277.35C1468.03 277.35 1468.03 277.35 1468.03 277.35C1468.02 277.35 1468.02 277.35 1468.02 277.35C1468.02 277.35 1468.02 277.35 1468.01 277.35C1468.01 277.35 1468.01 277.35 1468.01 277.35C1468 277.35 1468 277.35 1468 277.35C1468 277.35 1468 277.35 1467.99 277.35C1467.99 277.35 1467.99 277.35 1467.99 277.35C1467.98 277.35 1467.98 277.35 1467.98 277.35C1467.98 277.35 1467.98 277.35 1467.97 277.35C1467.97 277.35 1467.97 277.35 1467.97 277.35C1467.96 277.35 1467.96 277.35 1467.96 277.35C1467.96 277.35 1467.96 277.35 1467.95 277.35C1467.95 277.35 1467.95 277.35 1467.95 277.35C1467.94 277.35 1467.94 277.35 1467.94 277.35C1467.94 277.35 1467.94 277.35 1467.93 277.35C1467.93 277.35 1467.93 277.35 1467.93 277.35C1467.92 277.35 1467.92 277.35 1467.92 277.35C1467.92 277.35 1467.92 277.35 1467.91 277.35C1467.91 277.35 1467.91 277.35 1467.91 277.35C1467.9 277.35 1467.9 277.35 1467.9 277.35C1467.9 277.35 1467.9 277.35 1467.89 277.35C1467.89 277.35 1467.89 277.35 1467.89 277.35C1467.88 277.35 1467.88 277.35 1467.88 277.35C1467.88 277.35 1467.88 277.35 1467.87 277.35C1467.87 277.35 1467.87 277.35 1467.87 277.35C1467.86 277.35 1467.86 277.35 1467.86 277.35C1467.86 277.35 1467.86 277.35 1467.85 277.35C1467.85 277.35 1467.85 277.35 1467.85 277.35C1467.85 277.35 1467.84 277.35 1467.84 277.35C1467.84 277.35 1467.84 277.35 1467.83 277.35C1467.83 277.35 1467.83 277.35 1467.83 277.35C1467.83 277.35 1467.82 277.35 1467.82 277.35C1467.82 277.35 1467.82 277.35 1467.81 277.35C1467.81 277.35 1467.81 277.35 1467.81 277.35C1467.81 277.35 1467.8 277.35 1467.8 277.35C1467.8 277.35 1467.8 277.35 1467.79 277.35C1467.79 277.35 1467.79 277.35 1467.79 277.35C1467.79 277.35 1467.78 277.35 1467.78 277.35C1467.78 277.35 1467.78 277.35 1467.77 277.35C1467.77 277.35 1467.77 277.35 1467.77 277.35C1467.77 277.35 1467.76 277.35 1467.76 277.35C1467.76 277.35 1467.76 277.35 1467.76 277.35C1467.75 277.35 1467.75 277.35 1467.75 277.35C1467.75 277.35 1467.74 277.35 1467.74 277.35C1467.74 277.35 1467.74 277.35 1467.74 277.35C1467.73 277.35 1467.73 277.35 1467.73 277.35C1467.73 277.35 1467.72 277.35 1467.72 277.35C1467.72 277.35 1467.72 277.35 1467.72 277.35C1467.71 277.35 1467.71 277.35 1467.71 277.35C1467.71 277.35 1467.71 277.35 1467.7 277.35C1467.7 277.35 1467.7 277.35 1467.7 277.35C1467.69 277.35 1467.69 277.35 1467.69 277.35C1467.69 277.35 1467.69 277.35 1467.68 277.35C1467.68 277.35 1467.68 277.35 1467.68 277.35C1467.67 277.35 1467.67 277.35 1467.67 277.35C1467.67 277.35 1467.67 277.35 1467.66 277.35C1467.66 277.35 1467.66 277.35 1467.66 277.35C1467.66 277.35 1467.65 277.35 1467.65 277.35C1467.65 277.35 1467.65 277.35 1467.64 277.35C1467.64 277.35 1467.64 277.35 1467.64 277.35C1467.64 277.35 1467.63 277.35 1467.63 277.35C1467.63 277.35 1467.63 277.35 1467.63 277.35C1467.62 277.35 1467.62 277.35 1467.62 277.35C1467.62 277.35 1467.61 277.35 1467.61 277.35C1467.61 277.35 1467.61 277.35 1467.61 277.35C1467.6 277.35 1467.6 277.35 1467.6 277.35C1467.6 277.35 1467.59 277.35 1467.59 277.35C1467.59 277.35 1467.59 277.35 1467.59 277.35C1467.58 277.35 1467.58 277.35 1467.58 277.35C1467.58 277.35 1467.58 277.35 1467.57 277.35C1467.57 277.35 1467.57 277.35 1467.57 277.35C1467.56 277.35 1467.56 277.35 1467.56 277.35C1467.56 277.35 1467.56 277.35 1467.55 277.35C1467.55 277.35 1467.55 277.35 1467.55 277.35C1467.55 277.35 1467.54 277.35 1467.54 277.35C1467.54 277.35 1467.54 277.35 1467.53 277.35C1467.53 277.35 1467.53 277.35 1467.53 277.35C1467.53 277.35 1467.52 277.35 1467.52 277.35C1467.52 277.35 1467.52 277.35 1467.52 277.35C1467.51 277.35 1467.51 277.35 1467.51 277.35C1467.51 277.35 1467.5 277.35 1467.5 277.35C1467.5 277.35 1467.5 277.35 1467.5 277.35C1467.49 277.35 1467.49 277.35 1467.49 277.35C1467.49 277.35 1467.49 277.35 1467.48 277.35C1467.48 277.35 1467.48 277.35 1467.48 277.35C1467.47 277.35 1467.47 277.35 1467.47 277.35C1467.47 277.35 1467.47 277.35 1467.46 277.35C1467.46 277.35 1467.46 277.35 1467.46 277.35C1467.46 277.35 1467.45 277.35 1467.45 277.35C1467.45 277.35 1467.45 277.35 1467.45 277.35C1467.44 277.35 1467.44 277.35 1467.44 277.35C1467.44 277.35 1467.43 277.35 1467.43 277.35C1467.43 277.35 1467.43 277.35 1467.43 277.35C1467.42 277.35 1467.42 277.35 1467.42 277.35C1467.42 277.35 1467.42 277.35 1467.41 277.35C1467.41 277.35 1467.41 277.35 1467.41 277.35C1467.4 277.35 1467.4 277.35 1467.4 277.35C1467.4 277.35 1467.4 277.35 1467.39 277.35C1467.39 277.35 1467.39 277.35 1467.39 277.35C1467.39 277.35 1467.38 277.35 1467.38 277.35C1467.38 277.35 1467.38 277.35 1467.38 277.35C1467.37 277.35 1467.37 277.35 1467.37 277.35C1467.37 277.35 1467.36 277.35 1467.36 277.35C1467.36 277.35 1467.36 277.35 1467.36 277.35C1467.35 277.35 1467.35 277.35 1467.35 277.35C1467.35 277.35 1467.35 277.35 1467.34 277.35C1467.34 277.35 1467.34 277.35 1467.34 277.35C1467.34 277.35 1467.33 277.35 1467.33 277.35C1467.33 277.35 1467.33 277.35 1467.32 277.35C1467.32 277.35 1467.32 277.35 1467.32 277.35C1467.32 277.35 1467.31 277.35 1467.31 277.35C1467.31 277.35 1467.31 277.35 1467.31 277.35C1467.3 277.35 1467.3 277.35 1467.3 277.35C1467.3 277.35 1467.3 277.35 1467.29 277.35C1467.29 277.35 1467.29 277.35 1467.29 277.35C1467.28 277.35 1467.28 277.35 1467.28 277.35C1467.28 277.35 1467.28 277.35 1467.27 277.35C1467.27 277.35 1467.27 277.35 1467.27 277.35C1467.27 277.35 1467.26 277.35 1467.26 277.35C1467.26 277.35 1467.26 277.35 1467.26 277.35C1467.25 277.35 1467.25 277.35 1467.25 277.35C1467.25 277.35 1467.24 277.35 1467.24 277.35C1467.24 277.35 1467.24 277.35 1467.24 277.35C1467.23 277.35 1467.23 277.35 1467.23 277.35C1467.23 277.35 1467.23 277.35 1467.22 277.35C1467.22 277.35 1467.22 277.35 1467.22 277.35C1467.22 277.35 1467.21 277.35 1467.21 277.35C1467.21 277.35 1467.21 277.35 1467.21 277.35C1467.2 277.35 1467.2 277.35 1467.2 277.35C1467.2 277.35 1467.19 277.35 1467.19 277.35C1467.19 277.35 1467.19 277.35 1467.19 277.35C1467.18 277.35 1467.18 277.35 1467.18 277.35C1467.18 277.35 1467.18 277.35 1467.17 277.35C1467.17 277.35 1467.17 277.35 1467.17 277.35C1467.17 277.35 1467.16 277.35 1467.16 277.35C1467.16 277.35 1467.16 277.35 1467.16 277.35C1467.15 277.35 1467.15 277.35 1467.15 277.35C1467.15 277.35 1467.15 277.35 1467.14 277.35C1467.14 277.35 1467.14 277.35 1467.14 277.35C1467.13 277.35 1467.13 277.35 1467.13 277.35C1467.13 277.35 1467.13 277.35 1467.12 277.35C1467.12 277.35 1467.12 277.35 1467.12 277.35C1467.12 277.35 1467.11 277.35 1467.11 277.35C1467.11 277.35 1467.11 277.35 1467.11 277.35C1467.1 277.35 1467.1 277.35 1467.1 277.35C1467.1 277.35 1467.1 277.35 1467.09 277.35C1467.09 277.35 1467.09 277.35 1467.09 277.35C1467.09 277.35 1467.08 277.35 1467.08 277.35C1467.08 277.35 1467.08 277.35 1467.07 277.35C1467.07 277.35 1467.07 277.35 1467.07 277.35C1467.07 277.35 1467.06 277.35 1467.06 277.35C1467.06 277.35 1467.06 277.35 1467.06 277.35C1467.05 277.35 1467.05 277.35 1467.05 277.35C1467.05 277.35 1467.05 277.35 1467.04 277.35C1467.04 277.35 1467.04 277.35 1467.04 277.35C1467.04 277.35 1467.03 277.35 1467.03 277.35C1467.03 277.35 1467.03 277.35 1467.03 277.35C1467.02 277.35 1467.02 277.35 1467.02 277.35C1467.02 277.35 1467.02 277.35 1467.01 277.35C1467.01 277.35 1467.01 277.35 1467.01 277.35C1467.01 277.35 1467 277.35 1467 277.35C1467 277.35 1467 277.35 1466.99 277.35C1466.99 277.35 1466.99 277.35 1466.99 277.35C1466.99 277.35 1466.98 277.35 1466.98 277.35C1466.98 277.35 1466.98 277.35 1466.98 277.35C1466.97 277.35 1466.97 277.35 1466.97 277.35C1466.97 277.35 1466.97 277.35 1466.96 277.35C1466.96 277.35 1466.96 277.35 1466.96 277.35C1466.96 277.35 1466.95 277.35 1466.95 277.35C1466.95 277.35 1466.95 277.35 1466.95 277.35C1466.94 277.35 1466.94 277.35 1466.94 277.35C1466.94 277.35 1466.94 277.35 1466.93 277.35C1466.93 277.35 1466.93 277.35 1466.93 277.35C1466.93 277.35 1466.92 277.35 1466.92 277.35C1466.92 277.35 1466.92 277.35 1466.92 277.35C1466.91 277.35 1466.91 277.35 1466.91 277.35C1466.91 277.35 1466.91 277.35 1466.9 277.35C1466.9 277.35 1466.9 277.35 1466.9 277.35C1466.9 277.35 1466.89 277.35 1466.89 277.35C1466.89 277.35 1466.89 277.35 1466.88 277.35C1466.88 277.35 1466.88 277.35 1466.88 277.35C1466.88 277.35 1466.87 277.35 1466.87 277.35C1466.87 277.35 1466.87 277.35 1466.87 277.35C1466.86 277.35 1466.86 277.35 1466.86 277.35C1466.86 277.35 1466.86 277.35 1466.85 277.35C1466.85 277.35 1466.85 277.35 1466.85 277.35C1466.85 277.35 1466.84 277.35 1466.84 277.35C1466.84 277.35 1466.84 277.35 1466.84 277.35C1466.83 277.35 1466.83 277.35 1466.83 277.35C1466.83 277.35 1466.83 277.35 1466.82 277.35C1466.82 277.35 1466.82 277.35 1466.82 277.35C1466.82 277.35 1466.81 277.35 1466.81 277.35C1466.81 277.35 1466.81 277.35 1466.81 277.35C1466.8 277.35 1466.8 277.35 1466.8 277.35C1466.8 277.35 1466.8 277.35 1466.79 277.35C1466.79 277.35 1466.79 277.35 1466.79 277.35C1466.79 277.35 1466.78 277.35 1466.78 277.35C1466.78 277.35 1466.78 277.35 1466.78 277.35C1466.77 277.35 1466.77 277.35 1466.77 277.35C1466.77 277.35 1466.77 277.35 1466.76 277.35C1466.76 277.35 1466.76 277.35 1466.76 277.35C1466.76 277.35 1466.75 277.35 1466.75 277.35C1466.75 277.35 1466.75 277.35 1466.75 277.35C1466.74 277.35 1466.74 277.35 1466.74 277.35C1466.74 277.35 1466.74 277.35 1466.73 277.35C1466.73 277.35 1466.73 277.35 1466.73 277.35C1466.73 277.35 1466.72 277.35 1466.72 277.35C1466.72 277.35 1466.72 277.35 1466.72 277.35C1466.71 277.35 1466.71 277.35 1466.71 277.35C1466.71 277.35 1466.71 277.35 1466.7 277.35C1466.7 277.35 1466.7 277.35 1466.7 277.35C1466.7 277.35 1466.69 277.35 1466.69 277.35C1466.69 277.35 1466.69 277.35 1466.69 277.35C1466.68 277.35 1466.68 277.35 1466.68 277.35C1466.68 277.35 1466.68 277.35 1466.67 277.35C1466.67 277.35 1466.67 277.35 1466.67 277.35C1466.67 277.35 1466.66 277.35 1466.66 277.35C1466.66 277.35 1466.66 277.35 1466.66 277.35C1466.65 277.35 1466.65 277.35 1466.65 277.35C1466.65 277.35 1466.65 277.35 1466.64 277.35C1466.64 277.35 1466.64 277.35 1466.64 277.35C1466.64 277.35 1466.64 277.35 1466.63 277.35C1466.63 277.35 1466.63 277.35 1466.63 277.35C1466.63 277.35 1466.62 277.35 1466.62 277.35C1466.62 277.35 1466.62 277.35 1466.62 277.35C1466.61 277.35 1466.61 277.35 1466.61 277.35C1466.61 277.35 1466.61 277.35 1466.6 277.35C1466.6 277.35 1466.6 277.35 1466.6 277.35C1466.6 277.35 1466.59 277.35 1466.59 277.35C1466.59 277.35 1466.59 277.35 1466.59 277.35C1466.58 277.35 1466.58 277.35 1466.58 277.35C1466.58 277.35 1466.58 277.35 1466.57 277.35C1466.57 277.35 1466.57 277.35 1466.57 277.35C1466.57 277.35 1466.56 277.35 1466.56 277.35C1466.56 277.35 1466.56 277.35 1466.56 277.35C1466.55 277.35 1466.55 277.35 1466.55 277.35C1466.55 277.35 1466.55 277.35 1466.54 277.35C1466.54 277.35 1466.54 277.35 1466.54 277.35C1466.54 277.35 1466.53 277.35 1466.53 277.35C1466.53 277.35 1466.53 277.35 1466.53 277.35C1466.53 277.35 1466.52 277.35 1466.52 277.35C1466.52 277.35 1466.52 277.35 1466.52 277.35C1466.51 277.35 1466.51 277.35 1466.51 277.35C1466.51 277.35 1466.51 277.35 1466.5 277.35C1466.5 277.35 1466.5 277.35 1466.5 277.35C1466.5 277.35 1466.49 277.35 1466.49 277.35C1466.49 277.35 1466.49 277.35 1466.49 277.35C1466.48 277.35 1466.48 277.35 1466.48 277.35C1466.48 277.35 1466.48 277.35 1466.47 277.35C1466.47 277.35 1466.47 277.35 1466.47 277.35C1466.47 277.35 1466.46 277.35 1466.46 277.35C1466.46 277.35 1466.46 277.35 1466.46 277.35C1466.45 277.35 1466.45 277.35 1466.45 277.35C1466.45 277.35 1466.45 277.35 1466.45 277.35C1466.44 277.35 1466.44 277.35 1466.44 277.35C1466.44 277.35 1466.44 277.35 1466.43 277.35C1466.43 277.35 1466.43 277.35 1466.43 277.35C1466.43 277.35 1466.42 277.35 1466.42 277.35C1466.42 277.35 1466.42 277.35 1466.42 277.35C1466.41 277.35 1466.41 277.35 1466.41 277.35C1466.41 277.35 1466.41 277.35 1466.4 277.35C1466.4 277.35 1466.4 277.35 1466.4 277.35C1466.4 277.35 1466.39 277.35 1466.39 277.35C1466.39 277.35 1466.39 277.35 1466.39 277.35C1466.39 277.35 1466.38 277.35 1466.38 277.35C1466.38 277.35 1466.38 277.35 1466.38 277.35C1466.37 277.35 1466.37 277.35 1466.37 277.35C1466.37 277.35 1466.37 277.35 1466.36 277.35C1466.36 277.35 1466.36 277.35 1466.36 277.35C1466.36 277.35 1466.35 277.35 1466.35 277.35C1466.35 277.35 1466.35 277.35 1466.35 277.35C1466.34 277.35 1466.34 277.35 1466.34 277.35C1466.34 277.35 1466.34 277.35 1466.34 277.35C1466.33 277.35 1466.33 277.35 1466.33 277.35C1466.33 277.35 1466.33 277.35 1466.32 277.35C1466.32 277.35 1466.32 277.35 1466.32 277.35C1466.32 277.35 1466.31 277.35 1466.31 277.35C1466.31 277.35 1466.31 277.35 1466.31 277.35C1466.3 277.35 1466.3 277.35 1466.3 277.35C1466.3 277.35 1466.3 277.35 1466.3 277.35C1466.29 277.35 1466.29 277.35 1466.29 277.35C1466.29 277.35 1466.29 277.35 1466.28 277.35C1466.28 277.35 1466.28 277.35 1466.28 277.35C1466.28 277.35 1466.27 277.35 1466.27 277.35C1466.27 277.35 1466.27 277.35 1466.27 277.35C1466.26 277.35 1466.26 277.35 1466.26 277.35C1466.26 277.35 1466.26 277.35 1466.26 277.35C1466.25 277.35 1466.25 277.35 1466.25 277.35C1466.25 277.35 1466.25 277.35 1466.24 277.35C1466.24 277.35 1466.24 277.35 1466.24 277.35C1466.24 277.35 1466.23 277.35 1466.23 277.35C1466.23 277.35 1466.23 277.35 1466.23 277.35C1466.22 277.35 1466.22 277.35 1466.22 277.35C1466.22 277.35 1466.22 277.35 1466.22 277.35C1466.21 277.35 1466.21 277.35 1466.21 277.35C1466.21 277.35 1466.21 277.35 1466.2 277.35C1466.2 277.35 1466.2 277.35 1466.2 277.35C1466.2 277.35 1466.19 277.35 1466.19 277.35C1466.19 277.35 1466.19 277.35 1466.19 277.35C1466.19 277.35 1466.18 277.35 1466.18 277.35C1466.18 277.35 1466.18 277.35 1466.18 277.35C1466.17 277.35 1466.17 277.35 1466.17 277.35C1466.17 277.35 1466.17 277.35 1466.16 277.35C1466.16 277.35 1466.16 277.35 1466.16 277.35C1466.16 277.35 1466.15 277.35 1466.15 277.35C1466.15 277.35 1466.15 277.35 1466.15 277.35C1466.15 277.35 1466.14 277.35 1466.14 277.35C1466.14 277.35 1466.14 277.35 1466.14 277.35C1466.13 277.35 1466.13 277.35 1466.13 277.35C1466.13 277.35 1466.13 277.35 1466.12 277.35C1466.12 277.35 1466.12 277.35 1466.12 277.35C1466.12 277.35 1466.12 277.35 1466.11 277.35C1466.11 277.35 1466.11 277.35 1466.11 277.35C1466.11 277.35 1466.1 277.35 1466.1 277.35C1466.1 277.35 1466.1 277.35 1466.1 277.35C1466.09 277.35 1466.09 277.35 1466.09 277.35C1466.09 277.35 1466.09 277.35 1466.09 277.35C1466.08 277.35 1466.08 277.35 1466.08 277.35C1466.08 277.35 1466.08 277.35 1466.07 277.35C1466.07 277.35 1466.07 277.35 1466.07 277.35C1466.07 277.35 1466.07 277.35 1466.06 277.35C1466.06 277.35 1466.06 277.35 1466.06 277.35C1466.06 277.35 1466.05 277.35 1466.05 277.35C1466.05 277.35 1466.05 277.35 1466.05 277.35C1466.04 277.35 1466.04 277.35 1466.04 277.35C1466.04 277.35 1466.04 277.35 1466.04 277.35C1466.03 277.35 1466.03 277.35 1466.03 277.35C1466.03 277.35 1466.03 277.35 1466.02 277.35C1466.02 277.35 1466.02 277.35 1466.02 277.35C1466.02 277.35 1466.01 277.35 1466.01 277.35C1466.01 277.35 1466.01 277.35 1466.01 277.35C1466.01 277.35 1466 277.35 1466 277.35C1466 277.35 1466 277.35 1466 277.35C1465.99 277.35 1465.99 277.35 1465.99 277.35C1465.99 277.35 1465.99 277.35 1465.99 277.35C1465.98 277.35 1465.98 277.35 1465.98 277.35C1465.98 277.35 1465.98 277.35 1465.97 277.35C1465.97 277.35 1465.97 277.35 1465.97 277.35C1465.97 277.35 1465.97 277.35 1465.96 277.35C1465.96 277.35 1465.96 277.35 1465.96 277.35C1465.96 277.35 1465.95 277.35 1465.95 277.35C1465.95 277.35 1465.95 277.35 1465.95 277.35C1465.94 277.35 1465.94 277.35 1465.94 277.35C1465.94 277.35 1465.94 277.35 1465.94 277.35C1465.93 277.35 1465.93 277.35 1465.93 277.35C1465.93 277.35 1465.93 277.35 1465.92 277.35C1465.92 277.35 1465.92 277.35 1465.92 277.35C1465.92 277.35 1465.92 277.35 1465.91 277.35C1465.91 277.35 1465.91 277.35 1465.91 277.35C1465.91 277.35 1465.9 277.35 1465.9 277.35C1465.9 277.35 1465.9 277.35 1465.9 277.35C1465.9 277.35 1465.89 277.35 1465.89 277.35C1465.89 277.35 1465.89 277.35 1465.89 277.35C1465.88 277.35 1465.88 277.35 1465.88 277.35C1465.88 277.35 1465.88 277.35 1465.88 277.35C1465.87 277.35 1465.87 277.35 1465.87 277.35C1465.87 277.35 1465.87 277.35 1465.86 277.35C1465.86 277.35 1465.86 277.35 1465.86 277.35C1465.86 277.35 1465.86 277.35 1465.85 277.35C1465.85 277.35 1465.85 277.35 1465.85 277.35C1465.85 277.35 1465.84 277.35 1465.84 277.35C1465.84 277.35 1465.84 277.35 1465.84 277.35C1465.84 277.35 1465.83 277.35 1465.83 277.35C1465.83 277.35 1465.83 277.35 1465.83 277.35C1465.82 277.35 1465.82 277.35 1465.82 277.35C1465.82 277.35 1465.82 277.35 1465.82 277.35C1465.81 277.35 1465.81 277.35 1465.81 277.35C1465.81 277.35 1465.81 277.35 1465.8 277.35C1465.8 277.35 1465.8 277.35 1465.8 277.35C1465.8 277.35 1465.8 277.35 1465.79 277.35C1465.79 277.35 1465.79 277.35 1465.79 277.35C1465.79 277.35 1465.78 277.35 1465.78 277.35C1465.78 277.35 1465.78 277.35 1465.78 277.35C1465.78 277.35 1465.77 277.35 1465.77 277.35C1465.77 277.35 1465.77 277.35 1465.77 277.35C1465.76 277.35 1465.76 277.35 1465.76 277.35C1465.76 277.35 1465.76 277.35 1465.76 277.35C1465.75 277.35 1465.75 277.35 1465.75 277.35C1465.75 277.35 1465.75 277.35 1465.75 277.35C1465.74 277.35 1465.74 277.35 1465.74 277.35C1465.74 277.35 1465.74 277.35 1465.73 277.35C1465.73 277.35 1465.73 277.35 1465.73 277.35C1465.73 277.35 1465.73 277.35 1465.72 277.35C1465.72 277.35 1465.72 277.35 1465.72 277.35C1465.72 277.35 1465.71 277.35 1465.71 277.35C1465.71 277.35 1465.71 277.35 1465.71 277.35C1465.71 277.35 1465.7 277.35 1465.7 277.35C1465.7 277.35 1465.7 277.35 1465.7 277.35C1465.69 277.35 1465.69 277.35 1465.69 277.35C1465.69 277.35 1465.69 277.35 1465.69 277.35C1465.68 277.35 1465.68 277.35 1465.68 277.35C1465.68 277.35 1465.68 277.35 1465.68 277.35C1465.67 277.35 1465.67 277.35 1465.67 277.35C1465.67 277.35 1465.67 277.35 1465.66 277.35C1465.66 277.35 1465.66 277.35 1465.66 277.35C1465.66 277.35 1465.66 277.35 1465.65 277.35C1465.65 277.35 1465.65 277.35 1465.65 277.35C1465.65 277.35 1465.65 277.35 1465.64 277.35C1465.64 277.35 1465.64 277.35 1465.64 277.35C1465.64 277.35 1465.63 277.35 1465.63 277.35C1465.63 277.35 1465.63 277.35 1465.63 277.35C1465.63 277.35 1465.62 277.35 1465.62 277.35C1465.62 277.35 1465.62 277.35 1465.62 277.35C1465.61 277.35 1465.61 277.35 1465.61 277.35C1465.61 277.35 1465.61 277.35 1465.61 277.35C1465.6 277.35 1465.6 277.35 1465.6 277.35C1465.6 277.35 1465.6 277.35 1465.6 277.35C1465.59 277.35 1465.59 277.35 1465.59 277.35C1465.59 277.35 1465.59 277.35 1465.58 277.35C1465.58 277.35 1465.58 277.35 1465.58 277.35C1465.58 277.35 1465.58 277.35 1465.57 277.35C1465.57 277.35 1465.57 277.35 1465.57 277.35V281.35C1465.57 281.35 1465.57 281.35 1465.57 281.35C1465.58 281.35 1465.58 281.35 1465.58 281.35C1465.58 281.35 1465.58 281.35 1465.58 281.35C1465.59 281.35 1465.59 281.35 1465.59 281.35C1465.59 281.35 1465.59 281.35 1465.6 281.35C1465.6 281.35 1465.6 281.35 1465.6 281.35C1465.6 281.35 1465.6 281.35 1465.61 281.35C1465.61 281.35 1465.61 281.35 1465.61 281.35C1465.61 281.35 1465.61 281.35 1465.62 281.35C1465.62 281.35 1465.62 281.35 1465.62 281.35C1465.62 281.35 1465.63 281.35 1465.63 281.35C1465.63 281.35 1465.63 281.35 1465.63 281.35C1465.63 281.35 1465.64 281.35 1465.64 281.35C1465.64 281.35 1465.64 281.35 1465.64 281.35C1465.65 281.35 1465.65 281.35 1465.65 281.35C1465.65 281.35 1465.65 281.35 1465.65 281.35C1465.66 281.35 1465.66 281.35 1465.66 281.35C1465.66 281.35 1465.66 281.35 1465.66 281.35C1465.67 281.35 1465.67 281.35 1465.67 281.35C1465.67 281.35 1465.67 281.35 1465.68 281.35C1465.68 281.35 1465.68 281.35 1465.68 281.35C1465.68 281.35 1465.68 281.35 1465.69 281.35C1465.69 281.35 1465.69 281.35 1465.69 281.35C1465.69 281.35 1465.69 281.35 1465.7 281.35C1465.7 281.35 1465.7 281.35 1465.7 281.35C1465.7 281.35 1465.71 281.35 1465.71 281.35C1465.71 281.35 1465.71 281.35 1465.71 281.35C1465.71 281.35 1465.72 281.35 1465.72 281.35C1465.72 281.35 1465.72 281.35 1465.72 281.35C1465.73 281.35 1465.73 281.35 1465.73 281.35C1465.73 281.35 1465.73 281.35 1465.73 281.35C1465.74 281.35 1465.74 281.35 1465.74 281.35C1465.74 281.35 1465.74 281.35 1465.75 281.35C1465.75 281.35 1465.75 281.35 1465.75 281.35C1465.75 281.35 1465.75 281.35 1465.76 281.35C1465.76 281.35 1465.76 281.35 1465.76 281.35C1465.76 281.35 1465.76 281.35 1465.77 281.35C1465.77 281.35 1465.77 281.35 1465.77 281.35C1465.77 281.35 1465.78 281.35 1465.78 281.35C1465.78 281.35 1465.78 281.35 1465.78 281.35C1465.78 281.35 1465.79 281.35 1465.79 281.35C1465.79 281.35 1465.79 281.35 1465.79 281.35C1465.8 281.35 1465.8 281.35 1465.8 281.35C1465.8 281.35 1465.8 281.35 1465.8 281.35C1465.81 281.35 1465.81 281.35 1465.81 281.35C1465.81 281.35 1465.81 281.35 1465.82 281.35C1465.82 281.35 1465.82 281.35 1465.82 281.35C1465.82 281.35 1465.82 281.35 1465.83 281.35C1465.83 281.35 1465.83 281.35 1465.83 281.35C1465.83 281.35 1465.84 281.35 1465.84 281.35C1465.84 281.35 1465.84 281.35 1465.84 281.35C1465.84 281.35 1465.85 281.35 1465.85 281.35C1465.85 281.35 1465.85 281.35 1465.85 281.35C1465.86 281.35 1465.86 281.35 1465.86 281.35C1465.86 281.35 1465.86 281.35 1465.86 281.35C1465.87 281.35 1465.87 281.35 1465.87 281.35C1465.87 281.35 1465.87 281.35 1465.88 281.35C1465.88 281.35 1465.88 281.35 1465.88 281.35C1465.88 281.35 1465.88 281.35 1465.89 281.35C1465.89 281.35 1465.89 281.35 1465.89 281.35C1465.89 281.35 1465.9 281.35 1465.9 281.35C1465.9 281.35 1465.9 281.35 1465.9 281.35C1465.9 281.35 1465.91 281.35 1465.91 281.35C1465.91 281.35 1465.91 281.35 1465.91 281.35C1465.92 281.35 1465.92 281.35 1465.92 281.35C1465.92 281.35 1465.92 281.35 1465.92 281.35C1465.93 281.35 1465.93 281.35 1465.93 281.35C1465.93 281.35 1465.93 281.35 1465.94 281.35C1465.94 281.35 1465.94 281.35 1465.94 281.35C1465.94 281.35 1465.94 281.35 1465.95 281.35C1465.95 281.35 1465.95 281.35 1465.95 281.35C1465.95 281.35 1465.96 281.35 1465.96 281.35C1465.96 281.35 1465.96 281.35 1465.96 281.35C1465.97 281.35 1465.97 281.35 1465.97 281.35C1465.97 281.35 1465.97 281.35 1465.97 281.35C1465.98 281.35 1465.98 281.35 1465.98 281.35C1465.98 281.35 1465.98 281.35 1465.99 281.35C1465.99 281.35 1465.99 281.35 1465.99 281.35C1465.99 281.35 1465.99 281.35 1466 281.35C1466 281.35 1466 281.35 1466 281.35C1466 281.35 1466.01 281.35 1466.01 281.35C1466.01 281.35 1466.01 281.35 1466.01 281.35C1466.01 281.35 1466.02 281.35 1466.02 281.35C1466.02 281.35 1466.02 281.35 1466.02 281.35C1466.03 281.35 1466.03 281.35 1466.03 281.35C1466.03 281.35 1466.03 281.35 1466.04 281.35C1466.04 281.35 1466.04 281.35 1466.04 281.35C1466.04 281.35 1466.04 281.35 1466.05 281.35C1466.05 281.35 1466.05 281.35 1466.05 281.35C1466.05 281.35 1466.06 281.35 1466.06 281.35C1466.06 281.35 1466.06 281.35 1466.06 281.35C1466.07 281.35 1466.07 281.35 1466.07 281.35C1466.07 281.35 1466.07 281.35 1466.07 281.35C1466.08 281.35 1466.08 281.35 1466.08 281.35C1466.08 281.35 1466.08 281.35 1466.09 281.35C1466.09 281.35 1466.09 281.35 1466.09 281.35C1466.09 281.35 1466.09 281.35 1466.1 281.35C1466.1 281.35 1466.1 281.35 1466.1 281.35C1466.1 281.35 1466.11 281.35 1466.11 281.35C1466.11 281.35 1466.11 281.35 1466.11 281.35C1466.12 281.35 1466.12 281.35 1466.12 281.35C1466.12 281.35 1466.12 281.35 1466.12 281.35C1466.13 281.35 1466.13 281.35 1466.13 281.35C1466.13 281.35 1466.13 281.35 1466.14 281.35C1466.14 281.35 1466.14 281.35 1466.14 281.35C1466.14 281.35 1466.15 281.35 1466.15 281.35C1466.15 281.35 1466.15 281.35 1466.15 281.35C1466.15 281.35 1466.16 281.35 1466.16 281.35C1466.16 281.35 1466.16 281.35 1466.16 281.35C1466.17 281.35 1466.17 281.35 1466.17 281.35C1466.17 281.35 1466.17 281.35 1466.18 281.35C1466.18 281.35 1466.18 281.35 1466.18 281.35C1466.18 281.35 1466.19 281.35 1466.19 281.35C1466.19 281.35 1466.19 281.35 1466.19 281.35C1466.19 281.35 1466.2 281.35 1466.2 281.35C1466.2 281.35 1466.2 281.35 1466.2 281.35C1466.21 281.35 1466.21 281.35 1466.21 281.35C1466.21 281.35 1466.21 281.35 1466.22 281.35C1466.22 281.35 1466.22 281.35 1466.22 281.35C1466.22 281.35 1466.22 281.35 1466.23 281.35C1466.23 281.35 1466.23 281.35 1466.23 281.35C1466.23 281.35 1466.24 281.35 1466.24 281.35C1466.24 281.35 1466.24 281.35 1466.24 281.35C1466.25 281.35 1466.25 281.35 1466.25 281.35C1466.25 281.35 1466.25 281.35 1466.26 281.35C1466.26 281.35 1466.26 281.35 1466.26 281.35C1466.26 281.35 1466.26 281.35 1466.27 281.35C1466.27 281.35 1466.27 281.35 1466.27 281.35C1466.27 281.35 1466.28 281.35 1466.28 281.35C1466.28 281.35 1466.28 281.35 1466.28 281.35C1466.29 281.35 1466.29 281.35 1466.29 281.35C1466.29 281.35 1466.29 281.35 1466.3 281.35C1466.3 281.35 1466.3 281.35 1466.3 281.35C1466.3 281.35 1466.3 281.35 1466.31 281.35C1466.31 281.35 1466.31 281.35 1466.31 281.35C1466.31 281.35 1466.32 281.35 1466.32 281.35C1466.32 281.35 1466.32 281.35 1466.32 281.35C1466.33 281.35 1466.33 281.35 1466.33 281.35C1466.33 281.35 1466.33 281.35 1466.34 281.35C1466.34 281.35 1466.34 281.35 1466.34 281.35C1466.34 281.35 1466.34 281.35 1466.35 281.35C1466.35 281.35 1466.35 281.35 1466.35 281.35C1466.35 281.35 1466.36 281.35 1466.36 281.35C1466.36 281.35 1466.36 281.35 1466.36 281.35C1466.37 281.35 1466.37 281.35 1466.37 281.35C1466.37 281.35 1466.37 281.35 1466.38 281.35C1466.38 281.35 1466.38 281.35 1466.38 281.35C1466.38 281.35 1466.39 281.35 1466.39 281.35C1466.39 281.35 1466.39 281.35 1466.39 281.35C1466.39 281.35 1466.4 281.35 1466.4 281.35C1466.4 281.35 1466.4 281.35 1466.4 281.35C1466.41 281.35 1466.41 281.35 1466.41 281.35C1466.41 281.35 1466.41 281.35 1466.42 281.35C1466.42 281.35 1466.42 281.35 1466.42 281.35C1466.42 281.35 1466.43 281.35 1466.43 281.35C1466.43 281.35 1466.43 281.35 1466.43 281.35C1466.44 281.35 1466.44 281.35 1466.44 281.35C1466.44 281.35 1466.44 281.35 1466.45 281.35C1466.45 281.35 1466.45 281.35 1466.45 281.35C1466.45 281.35 1466.45 281.35 1466.46 281.35C1466.46 281.35 1466.46 281.35 1466.46 281.35C1466.46 281.35 1466.47 281.35 1466.47 281.35C1466.47 281.35 1466.47 281.35 1466.47 281.35C1466.48 281.35 1466.48 281.35 1466.48 281.35C1466.48 281.35 1466.48 281.35 1466.49 281.35C1466.49 281.35 1466.49 281.35 1466.49 281.35C1466.49 281.35 1466.5 281.35 1466.5 281.35C1466.5 281.35 1466.5 281.35 1466.5 281.35C1466.51 281.35 1466.51 281.35 1466.51 281.35C1466.51 281.35 1466.51 281.35 1466.52 281.35C1466.52 281.35 1466.52 281.35 1466.52 281.35C1466.52 281.35 1466.53 281.35 1466.53 281.35C1466.53 281.35 1466.53 281.35 1466.53 281.35C1466.53 281.35 1466.54 281.35 1466.54 281.35C1466.54 281.35 1466.54 281.35 1466.54 281.35C1466.55 281.35 1466.55 281.35 1466.55 281.35C1466.55 281.35 1466.55 281.35 1466.56 281.35C1466.56 281.35 1466.56 281.35 1466.56 281.35C1466.56 281.35 1466.57 281.35 1466.57 281.35C1466.57 281.35 1466.57 281.35 1466.57 281.35C1466.58 281.35 1466.58 281.35 1466.58 281.35C1466.58 281.35 1466.58 281.35 1466.59 281.35C1466.59 281.35 1466.59 281.35 1466.59 281.35C1466.59 281.35 1466.6 281.35 1466.6 281.35C1466.6 281.35 1466.6 281.35 1466.6 281.35C1466.61 281.35 1466.61 281.35 1466.61 281.35C1466.61 281.35 1466.61 281.35 1466.62 281.35C1466.62 281.35 1466.62 281.35 1466.62 281.35C1466.62 281.35 1466.63 281.35 1466.63 281.35C1466.63 281.35 1466.63 281.35 1466.63 281.35C1466.64 281.35 1466.64 281.35 1466.64 281.35C1466.64 281.35 1466.64 281.35 1466.64 281.35C1466.65 281.35 1466.65 281.35 1466.65 281.35C1466.65 281.35 1466.65 281.35 1466.66 281.35C1466.66 281.35 1466.66 281.35 1466.66 281.35C1466.66 281.35 1466.67 281.35 1466.67 281.35C1466.67 281.35 1466.67 281.35 1466.67 281.35C1466.68 281.35 1466.68 281.35 1466.68 281.35C1466.68 281.35 1466.68 281.35 1466.69 281.35C1466.69 281.35 1466.69 281.35 1466.69 281.35C1466.69 281.35 1466.7 281.35 1466.7 281.35C1466.7 281.35 1466.7 281.35 1466.7 281.35C1466.71 281.35 1466.71 281.35 1466.71 281.35C1466.71 281.35 1466.71 281.35 1466.72 281.35C1466.72 281.35 1466.72 281.35 1466.72 281.35C1466.72 281.35 1466.73 281.35 1466.73 281.35C1466.73 281.35 1466.73 281.35 1466.73 281.35C1466.74 281.35 1466.74 281.35 1466.74 281.35C1466.74 281.35 1466.74 281.35 1466.75 281.35C1466.75 281.35 1466.75 281.35 1466.75 281.35C1466.75 281.35 1466.76 281.35 1466.76 281.35C1466.76 281.35 1466.76 281.35 1466.76 281.35C1466.77 281.35 1466.77 281.35 1466.77 281.35C1466.77 281.35 1466.77 281.35 1466.78 281.35C1466.78 281.35 1466.78 281.35 1466.78 281.35C1466.78 281.35 1466.79 281.35 1466.79 281.35C1466.79 281.35 1466.79 281.35 1466.79 281.35C1466.8 281.35 1466.8 281.35 1466.8 281.35C1466.8 281.35 1466.8 281.35 1466.81 281.35C1466.81 281.35 1466.81 281.35 1466.81 281.35C1466.81 281.35 1466.82 281.35 1466.82 281.35C1466.82 281.35 1466.82 281.35 1466.82 281.35C1466.83 281.35 1466.83 281.35 1466.83 281.35C1466.83 281.35 1466.83 281.35 1466.84 281.35C1466.84 281.35 1466.84 281.35 1466.84 281.35C1466.84 281.35 1466.85 281.35 1466.85 281.35C1466.85 281.35 1466.85 281.35 1466.85 281.35C1466.86 281.35 1466.86 281.35 1466.86 281.35C1466.86 281.35 1466.86 281.35 1466.87 281.35C1466.87 281.35 1466.87 281.35 1466.87 281.35C1466.87 281.35 1466.88 281.35 1466.88 281.35C1466.88 281.35 1466.88 281.35 1466.88 281.35C1466.89 281.35 1466.89 281.35 1466.89 281.35C1466.89 281.35 1466.9 281.35 1466.9 281.35C1466.9 281.35 1466.9 281.35 1466.9 281.35C1466.91 281.35 1466.91 281.35 1466.91 281.35C1466.91 281.35 1466.91 281.35 1466.92 281.35C1466.92 281.35 1466.92 281.35 1466.92 281.35C1466.92 281.35 1466.93 281.35 1466.93 281.35C1466.93 281.35 1466.93 281.35 1466.93 281.35C1466.94 281.35 1466.94 281.35 1466.94 281.35C1466.94 281.35 1466.94 281.35 1466.95 281.35C1466.95 281.35 1466.95 281.35 1466.95 281.35C1466.95 281.35 1466.96 281.35 1466.96 281.35C1466.96 281.35 1466.96 281.35 1466.96 281.35C1466.97 281.35 1466.97 281.35 1466.97 281.35C1466.97 281.35 1466.97 281.35 1466.98 281.35C1466.98 281.35 1466.98 281.35 1466.98 281.35C1466.98 281.35 1466.99 281.35 1466.99 281.35C1466.99 281.35 1466.99 281.35 1466.99 281.35C1467 281.35 1467 281.35 1467 281.35C1467 281.35 1467.01 281.35 1467.01 281.35C1467.01 281.35 1467.01 281.35 1467.01 281.35C1467.02 281.35 1467.02 281.35 1467.02 281.35C1467.02 281.35 1467.02 281.35 1467.03 281.35C1467.03 281.35 1467.03 281.35 1467.03 281.35C1467.03 281.35 1467.04 281.35 1467.04 281.35C1467.04 281.35 1467.04 281.35 1467.04 281.35C1467.05 281.35 1467.05 281.35 1467.05 281.35C1467.05 281.35 1467.05 281.35 1467.06 281.35C1467.06 281.35 1467.06 281.35 1467.06 281.35C1467.06 281.35 1467.07 281.35 1467.07 281.35C1467.07 281.35 1467.07 281.35 1467.07 281.35C1467.08 281.35 1467.08 281.35 1467.08 281.35C1467.08 281.35 1467.09 281.35 1467.09 281.35C1467.09 281.35 1467.09 281.35 1467.09 281.35C1467.1 281.35 1467.1 281.35 1467.1 281.35C1467.1 281.35 1467.1 281.35 1467.11 281.35C1467.11 281.35 1467.11 281.35 1467.11 281.35C1467.11 281.35 1467.12 281.35 1467.12 281.35C1467.12 281.35 1467.12 281.35 1467.12 281.35C1467.13 281.35 1467.13 281.35 1467.13 281.35C1467.13 281.35 1467.13 281.35 1467.14 281.35C1467.14 281.35 1467.14 281.35 1467.14 281.35C1467.15 281.35 1467.15 281.35 1467.15 281.35C1467.15 281.35 1467.15 281.35 1467.16 281.35C1467.16 281.35 1467.16 281.35 1467.16 281.35C1467.16 281.35 1467.17 281.35 1467.17 281.35C1467.17 281.35 1467.17 281.35 1467.17 281.35C1467.18 281.35 1467.18 281.35 1467.18 281.35C1467.18 281.35 1467.18 281.35 1467.19 281.35C1467.19 281.35 1467.19 281.35 1467.19 281.35C1467.19 281.35 1467.2 281.35 1467.2 281.35C1467.2 281.35 1467.2 281.35 1467.21 281.35C1467.21 281.35 1467.21 281.35 1467.21 281.35C1467.21 281.35 1467.22 281.35 1467.22 281.35C1467.22 281.35 1467.22 281.35 1467.22 281.35C1467.23 281.35 1467.23 281.35 1467.23 281.35C1467.23 281.35 1467.23 281.35 1467.24 281.35C1467.24 281.35 1467.24 281.35 1467.24 281.35C1467.24 281.35 1467.25 281.35 1467.25 281.35C1467.25 281.35 1467.25 281.35 1467.26 281.35C1467.26 281.35 1467.26 281.35 1467.26 281.35C1467.26 281.35 1467.27 281.35 1467.27 281.35C1467.27 281.35 1467.27 281.35 1467.27 281.35C1467.28 281.35 1467.28 281.35 1467.28 281.35C1467.28 281.35 1467.28 281.35 1467.29 281.35C1467.29 281.35 1467.29 281.35 1467.29 281.35C1467.3 281.35 1467.3 281.35 1467.3 281.35C1467.3 281.35 1467.3 281.35 1467.31 281.35C1467.31 281.35 1467.31 281.35 1467.31 281.35C1467.31 281.35 1467.32 281.35 1467.32 281.35C1467.32 281.35 1467.32 281.35 1467.32 281.35C1467.33 281.35 1467.33 281.35 1467.33 281.35C1467.33 281.35 1467.34 281.35 1467.34 281.35C1467.34 281.35 1467.34 281.35 1467.34 281.35C1467.35 281.35 1467.35 281.35 1467.35 281.35C1467.35 281.35 1467.35 281.35 1467.36 281.35C1467.36 281.35 1467.36 281.35 1467.36 281.35C1467.36 281.35 1467.37 281.35 1467.37 281.35C1467.37 281.35 1467.37 281.35 1467.38 281.35C1467.38 281.35 1467.38 281.35 1467.38 281.35C1467.38 281.35 1467.39 281.35 1467.39 281.35C1467.39 281.35 1467.39 281.35 1467.39 281.35C1467.4 281.35 1467.4 281.35 1467.4 281.35C1467.4 281.35 1467.4 281.35 1467.41 281.35C1467.41 281.35 1467.41 281.35 1467.41 281.35C1467.42 281.35 1467.42 281.35 1467.42 281.35C1467.42 281.35 1467.42 281.35 1467.43 281.35C1467.43 281.35 1467.43 281.35 1467.43 281.35C1467.43 281.35 1467.44 281.35 1467.44 281.35C1467.44 281.35 1467.44 281.35 1467.45 281.35C1467.45 281.35 1467.45 281.35 1467.45 281.35C1467.45 281.35 1467.46 281.35 1467.46 281.35C1467.46 281.35 1467.46 281.35 1467.46 281.35C1467.47 281.35 1467.47 281.35 1467.47 281.35C1467.47 281.35 1467.47 281.35 1467.48 281.35C1467.48 281.35 1467.48 281.35 1467.48 281.35C1467.49 281.35 1467.49 281.35 1467.49 281.35C1467.49 281.35 1467.49 281.35 1467.5 281.35C1467.5 281.35 1467.5 281.35 1467.5 281.35C1467.5 281.35 1467.51 281.35 1467.51 281.35C1467.51 281.35 1467.51 281.35 1467.52 281.35C1467.52 281.35 1467.52 281.35 1467.52 281.35C1467.52 281.35 1467.53 281.35 1467.53 281.35C1467.53 281.35 1467.53 281.35 1467.53 281.35C1467.54 281.35 1467.54 281.35 1467.54 281.35C1467.54 281.35 1467.55 281.35 1467.55 281.35C1467.55 281.35 1467.55 281.35 1467.55 281.35C1467.56 281.35 1467.56 281.35 1467.56 281.35C1467.56 281.35 1467.56 281.35 1467.57 281.35C1467.57 281.35 1467.57 281.35 1467.57 281.35C1467.58 281.35 1467.58 281.35 1467.58 281.35C1467.58 281.35 1467.58 281.35 1467.59 281.35C1467.59 281.35 1467.59 281.35 1467.59 281.35C1467.59 281.35 1467.6 281.35 1467.6 281.35C1467.6 281.35 1467.6 281.35 1467.61 281.35C1467.61 281.35 1467.61 281.35 1467.61 281.35C1467.61 281.35 1467.62 281.35 1467.62 281.35C1467.62 281.35 1467.62 281.35 1467.63 281.35C1467.63 281.35 1467.63 281.35 1467.63 281.35C1467.63 281.35 1467.64 281.35 1467.64 281.35C1467.64 281.35 1467.64 281.35 1467.64 281.35C1467.65 281.35 1467.65 281.35 1467.65 281.35C1467.65 281.35 1467.66 281.35 1467.66 281.35C1467.66 281.35 1467.66 281.35 1467.66 281.35C1467.67 281.35 1467.67 281.35 1467.67 281.35C1467.67 281.35 1467.67 281.35 1467.68 281.35C1467.68 281.35 1467.68 281.35 1467.68 281.35C1467.69 281.35 1467.69 281.35 1467.69 281.35C1467.69 281.35 1467.69 281.35 1467.7 281.35C1467.7 281.35 1467.7 281.35 1467.7 281.35C1467.71 281.35 1467.71 281.35 1467.71 281.35C1467.71 281.35 1467.71 281.35 1467.72 281.35C1467.72 281.35 1467.72 281.35 1467.72 281.35C1467.72 281.35 1467.73 281.35 1467.73 281.35C1467.73 281.35 1467.73 281.35 1467.74 281.35C1467.74 281.35 1467.74 281.35 1467.74 281.35C1467.74 281.35 1467.75 281.35 1467.75 281.35C1467.75 281.35 1467.75 281.35 1467.76 281.35C1467.76 281.35 1467.76 281.35 1467.76 281.35C1467.76 281.35 1467.77 281.35 1467.77 281.35C1467.77 281.35 1467.77 281.35 1467.77 281.35C1467.78 281.35 1467.78 281.35 1467.78 281.35C1467.78 281.35 1467.79 281.35 1467.79 281.35C1467.79 281.35 1467.79 281.35 1467.79 281.35C1467.8 281.35 1467.8 281.35 1467.8 281.35C1467.8 281.35 1467.81 281.35 1467.81 281.35C1467.81 281.35 1467.81 281.35 1467.81 281.35C1467.82 281.35 1467.82 281.35 1467.82 281.35C1467.82 281.35 1467.83 281.35 1467.83 281.35C1467.83 281.35 1467.83 281.35 1467.83 281.35C1467.84 281.35 1467.84 281.35 1467.84 281.35C1467.84 281.35 1467.85 281.35 1467.85 281.35C1467.85 281.35 1467.85 281.35 1467.85 281.35C1467.86 281.35 1467.86 281.35 1467.86 281.35C1467.86 281.35 1467.86 281.35 1467.87 281.35C1467.87 281.35 1467.87 281.35 1467.87 281.35C1467.88 281.35 1467.88 281.35 1467.88 281.35C1467.88 281.35 1467.88 281.35 1467.89 281.35C1467.89 281.35 1467.89 281.35 1467.89 281.35C1467.9 281.35 1467.9 281.35 1467.9 281.35C1467.9 281.35 1467.9 281.35 1467.91 281.35C1467.91 281.35 1467.91 281.35 1467.91 281.35C1467.92 281.35 1467.92 281.35 1467.92 281.35C1467.92 281.35 1467.92 281.35 1467.93 281.35C1467.93 281.35 1467.93 281.35 1467.93 281.35C1467.94 281.35 1467.94 281.35 1467.94 281.35C1467.94 281.35 1467.94 281.35 1467.95 281.35C1467.95 281.35 1467.95 281.35 1467.95 281.35C1467.96 281.35 1467.96 281.35 1467.96 281.35C1467.96 281.35 1467.96 281.35 1467.97 281.35C1467.97 281.35 1467.97 281.35 1467.97 281.35C1467.98 281.35 1467.98 281.35 1467.98 281.35C1467.98 281.35 1467.98 281.35 1467.99 281.35C1467.99 281.35 1467.99 281.35 1467.99 281.35C1468 281.35 1468 281.35 1468 281.35C1468 281.35 1468 281.35 1468.01 281.35C1468.01 281.35 1468.01 281.35 1468.01 281.35C1468.02 281.35 1468.02 281.35 1468.02 281.35C1468.02 281.35 1468.02 281.35 1468.03 281.35C1468.03 281.35 1468.03 281.35 1468.03 281.35C1468.04 281.35 1468.04 281.35 1468.04 281.35C1468.04 281.35 1468.04 281.35 1468.05 281.35C1468.05 281.35 1468.05 281.35 1468.05 281.35C1468.06 281.35 1468.06 281.35 1468.06 281.35C1468.06 281.35 1468.06 281.35 1468.07 281.35C1468.07 281.35 1468.07 281.35 1468.07 281.35C1468.08 281.35 1468.08 281.35 1468.08 281.35C1468.08 281.35 1468.08 281.35 1468.09 281.35C1468.09 281.35 1468.09 281.35 1468.09 281.35C1468.1 281.35 1468.1 281.35 1468.1 281.35C1468.1 281.35 1468.1 281.35 1468.11 281.35C1468.11 281.35 1468.11 281.35 1468.11 281.35C1468.12 281.35 1468.12 281.35 1468.12 281.35C1468.12 281.35 1468.12 281.35 1468.13 281.35C1468.13 281.35 1468.13 281.35 1468.13 281.35C1468.14 281.35 1468.14 281.35 1468.14 281.35C1468.14 281.35 1468.15 281.35 1468.15 281.35C1468.15 281.35 1468.15 281.35 1468.15 281.35C1468.16 281.35 1468.16 281.35 1468.16 281.35C1468.16 281.35 1468.17 281.35 1468.17 281.35C1468.17 281.35 1468.17 281.35 1468.17 281.35C1468.18 281.35 1468.18 281.35 1468.18 281.35C1468.18 281.35 1468.19 281.35 1468.19 281.35C1468.19 281.35 1468.19 281.35 1468.19 281.35C1468.2 281.35 1468.2 281.35 1468.2 281.35C1468.2 281.35 1468.21 281.35 1468.21 281.35C1468.21 281.35 1468.21 281.35 1468.22 281.35C1468.22 281.35 1468.22 281.35 1468.22 281.35C1468.22 281.35 1468.23 281.35 1468.23 281.35C1468.23 281.35 1468.23 281.35 1468.24 281.35C1468.24 281.35 1468.24 281.35 1468.24 281.35C1468.24 281.35 1468.25 281.35 1468.25 281.35C1468.25 281.35 1468.25 281.35 1468.26 281.35C1468.26 281.35 1468.26 281.35 1468.26 281.35C1468.26 281.35 1468.27 281.35 1468.27 281.35C1468.27 281.35 1468.27 281.35 1468.28 281.35C1468.28 281.35 1468.28 281.35 1468.28 281.35C1468.29 281.35 1468.29 281.35 1468.29 281.35C1468.29 281.35 1468.29 281.35 1468.3 281.35C1468.3 281.35 1468.3 281.35 1468.3 281.35C1468.31 281.35 1468.31 281.35 1468.31 281.35C1468.31 281.35 1468.31 281.35 1468.32 281.35C1468.32 281.35 1468.32 281.35 1468.32 281.35C1468.33 281.35 1468.33 281.35 1468.33 281.35C1468.33 281.35 1468.34 281.35 1468.34 281.35C1468.34 281.35 1468.34 281.35 1468.34 281.35C1468.35 281.35 1468.35 281.35 1468.35 281.35C1468.35 281.35 1468.36 281.35 1468.36 281.35C1468.36 281.35 1468.36 281.35 1468.37 281.35C1468.37 281.35 1468.37 281.35 1468.37 281.35C1468.37 281.35 1468.38 281.35 1468.38 281.35C1468.38 281.35 1468.38 281.35 1468.39 281.35C1468.39 281.35 1468.39 281.35 1468.39 281.35C1468.39 281.35 1468.4 281.35 1468.4 281.35C1468.4 281.35 1468.4 281.35 1468.41 281.35C1468.41 281.35 1468.41 281.35 1468.41 281.35C1468.42 281.35 1468.42 281.35 1468.42 281.35C1468.42 281.35 1468.42 281.35 1468.43 281.35C1468.43 281.35 1468.43 281.35 1468.43 281.35C1468.44 281.35 1468.44 281.35 1468.44 281.35C1468.44 281.35 1468.45 281.35 1468.45 281.35C1468.45 281.35 1468.45 281.35 1468.45 281.35C1468.46 281.35 1468.46 281.35 1468.46 281.35C1468.46 281.35 1468.47 281.35 1468.47 281.35C1468.47 281.35 1468.47 281.35 1468.48 281.35C1468.48 281.35 1468.48 281.35 1468.48 281.35C1468.48 281.35 1468.49 281.35 1468.49 281.35C1468.49 281.35 1468.49 281.35 1468.5 281.35C1468.5 281.35 1468.5 281.35 1468.5 281.35C1468.51 281.35 1468.51 281.35 1468.51 281.35C1468.51 281.35 1468.51 281.35 1468.52 281.35C1468.52 281.35 1468.52 281.35 1468.52 281.35C1468.53 281.35 1468.53 281.35 1468.53 281.35C1468.53 281.35 1468.54 281.35 1468.54 281.35C1468.54 281.35 1468.54 281.35 1468.54 281.35C1468.55 281.35 1468.55 281.35 1468.55 281.35C1468.55 281.35 1468.56 281.35 1468.56 281.35C1468.56 281.35 1468.56 281.35 1468.57 281.35C1468.57 281.35 1468.57 281.35 1468.57 281.35C1468.57 281.35 1468.58 281.35 1468.58 281.35C1468.58 281.35 1468.58 281.35 1468.59 281.35C1468.59 281.35 1468.59 281.35 1468.59 281.35C1468.6 281.35 1468.6 281.35 1468.6 281.35C1468.6 281.35 1468.6 281.35 1468.61 281.35C1468.61 281.35 1468.61 281.35 1468.61 281.35C1468.62 281.35 1468.62 281.35 1468.62 281.35C1468.62 281.35 1468.63 281.35 1468.63 281.35C1468.63 281.35 1468.63 281.35 1468.64 281.35C1468.64 281.35 1468.64 281.35 1468.64 281.35C1468.64 281.35 1468.65 281.35 1468.65 281.35C1468.65 281.35 1468.65 281.35 1468.66 281.35C1468.66 281.35 1468.66 281.35 1468.66 281.35C1468.67 281.35 1468.67 281.35 1468.67 281.35C1468.67 281.35 1468.67 281.35 1468.68 281.35C1468.68 281.35 1468.68 281.35 1468.68 281.35C1468.69 281.35 1468.69 281.35 1468.69 281.35C1468.69 281.35 1468.7 281.35 1468.7 281.35C1468.7 281.35 1468.7 281.35 1468.71 281.35C1468.71 281.35 1468.71 281.35 1468.71 281.35C1468.71 281.35 1468.72 281.35 1468.72 281.35V277.35ZM1466.2 277.453C1465.3 277.153 1464.4 276.853 1463.5 276.553L1462.24 280.347C1463.14 280.647 1464.04 280.947 1464.94 281.247L1466.2 277.453ZM1463.5 276.553C1456.19 274.116 1448.14 272.143 1439.36 270.629L1438.68 274.571C1447.3 276.056 1455.15 277.984 1462.24 280.347L1463.5 276.553ZM1439.37 270.631C1430.84 269.107 1421.57 268.35 1411.57 268.35V272.35C1421.37 272.35 1430.4 273.093 1438.67 274.569L1439.37 270.631ZM1411.57 268.35C1394.87 268.35 1381.67 271.38 1372.21 277.686L1374.43 281.014C1382.97 275.32 1395.27 272.35 1411.57 272.35V268.35ZM1372.21 277.686C1362.78 283.971 1357.82 292.04 1357.82 301.85H1361.82C1361.82 293.66 1365.86 286.729 1374.43 281.014L1372.21 277.686ZM1357.82 301.85C1357.82 310.294 1361.28 316.93 1368.16 321.514L1370.38 318.186C1364.65 314.37 1361.82 309.006 1361.82 301.85H1357.82ZM1368.2 321.537C1375.02 325.879 1383.62 329.398 1393.96 332.133L1394.98 328.267C1384.92 325.602 1376.72 322.221 1370.34 318.163L1368.2 321.537ZM1394.02 332.15C1404.52 334.548 1415.46 337.097 1426.86 339.796L1427.78 335.904C1416.38 333.203 1405.42 330.652 1394.91 328.25L1394.02 332.15ZM1426.87 339.799C1438.42 342.465 1449.22 346.313 1459.27 351.339L1461.06 347.761C1450.71 342.587 1439.61 338.635 1427.77 335.901L1426.87 339.799ZM1459.34 351.369C1469.55 356.036 1477.67 362.574 1483.75 370.973L1486.99 368.627C1480.47 359.626 1471.79 352.664 1461 347.731L1459.34 351.369ZM1483.78 371.009C1490.03 379.258 1493.27 390.487 1493.27 404.9H1497.27C1497.27 389.913 1493.9 377.742 1486.96 368.591L1483.78 371.009ZM1493.27 404.9C1493.27 422.583 1486.2 437.807 1471.88 450.662L1474.56 453.638C1489.64 440.093 1497.27 423.817 1497.27 404.9H1493.27ZM1471.88 450.66C1458 463.103 1436.96 469.5 1408.42 469.5V473.5C1437.48 473.5 1459.64 466.997 1474.55 453.64L1471.88 450.66ZM1567.03 440.45L1565.6 441.844L1565.61 441.854L1565.62 441.864L1567.03 440.45ZM1547.68 294.65L1549.53 295.419L1549.53 295.408L1547.68 294.65ZM1582.78 250.1L1583.95 251.725L1583.95 251.725L1582.78 250.1ZM1702.48 249.2L1701.36 250.854L1701.37 250.862L1701.38 250.869L1702.48 249.2ZM1738.48 290.6L1736.67 291.456L1736.68 291.469L1736.68 291.482L1738.48 290.6ZM1745.23 360.8L1743.82 359.386L1743.79 359.414L1743.76 359.443L1745.23 360.8ZM1577.83 366.65V364.65H1575.58L1575.84 366.887L1577.83 366.65ZM1600.78 415.25L1599.4 416.697L1599.41 416.706L1599.42 416.714L1600.78 415.25ZM1690.78 429.65L1691.28 431.587L1691.31 431.579L1691.34 431.571L1690.78 429.65ZM1717.33 419.3L1716.44 417.511L1716.44 417.511L1717.33 419.3ZM1738.03 422.45L1739.38 420.976L1738.03 422.45ZM1739.83 444.95L1738.27 443.701L1738.26 443.711L1738.25 443.722L1739.83 444.95ZM1731.73 451.7L1730.77 449.944L1730.75 449.955L1730.73 449.967L1731.73 451.7ZM1699.33 466.1L1699.93 468.007L1699.95 468.002L1699.96 467.997L1699.33 466.1ZM1577.83 333.35L1575.83 333.235L1575.71 335.35H1577.83V333.35ZM1710.58 333.35V335.35H1712.7L1712.58 333.235L1710.58 333.35ZM1698.43 295.55L1696.81 296.717L1696.82 296.734L1696.83 296.75L1698.43 295.55ZM1673.23 274.4L1674.06 272.579L1674.06 272.579L1673.23 274.4ZM1614.73 274.4L1613.9 272.579L1613.9 272.579L1614.73 274.4ZM1652.98 469.5C1616.77 469.5 1588.68 459.272 1568.44 439.036L1565.62 441.864C1586.78 463.028 1615.99 473.5 1652.98 473.5V469.5ZM1568.46 439.056C1548.52 418.529 1538.43 389.687 1538.43 352.25H1534.43C1534.43 390.413 1544.74 420.371 1565.6 441.844L1568.46 439.056ZM1538.43 352.25C1538.43 332.102 1542.13 313.164 1549.53 295.419L1545.83 293.881C1538.23 312.136 1534.43 331.598 1534.43 352.25H1538.43ZM1549.53 295.408C1556.89 277.452 1568.35 262.904 1583.95 251.725L1581.61 248.475C1565.41 260.096 1553.47 275.248 1545.83 293.892L1549.53 295.408ZM1583.95 251.725C1599.42 240.628 1619.38 235 1643.98 235V231C1618.78 231 1597.94 236.772 1581.61 248.475L1583.95 251.725ZM1643.98 235C1666.76 235 1685.85 240.322 1701.36 250.854L1703.6 247.546C1687.31 236.478 1667.4 231 1643.98 231V235ZM1701.38 250.869C1716.98 261.169 1728.73 274.689 1736.67 291.456L1740.29 289.744C1732.03 272.311 1719.78 258.231 1703.58 247.531L1701.38 250.869ZM1736.68 291.482C1744.94 308.292 1749.08 326.588 1749.08 346.4H1753.08C1753.08 326.012 1748.82 307.108 1740.28 289.718L1736.68 291.482ZM1749.08 346.4C1749.08 351.589 1747.33 355.875 1743.82 359.386L1746.64 362.214C1750.93 357.925 1753.08 352.611 1753.08 346.4H1749.08ZM1743.76 359.443C1740.61 362.857 1736.24 364.65 1730.38 364.65V368.65C1737.12 368.65 1742.65 366.543 1746.7 362.157L1743.76 359.443ZM1730.38 364.65H1577.83V368.65H1730.38V364.65ZM1575.84 366.887C1578.29 387.382 1586.12 404.033 1599.4 416.697L1602.16 413.803C1589.64 401.867 1582.17 386.118 1579.82 366.413L1575.84 366.887ZM1599.42 416.714C1612.81 429.171 1631.97 435.25 1656.58 435.25V431.25C1632.59 431.25 1614.55 425.329 1602.14 413.786L1599.42 416.714ZM1656.58 435.25C1670.19 435.25 1681.77 434.042 1691.28 431.587L1690.28 427.713C1681.19 430.058 1669.97 431.25 1656.58 431.25V435.25ZM1691.34 431.571C1700.75 428.838 1709.71 425.345 1718.22 421.089L1716.44 417.511C1708.15 421.655 1699.41 425.062 1690.22 427.729L1691.34 431.571ZM1718.22 421.089C1720.32 420.043 1722.7 419.5 1725.43 419.5V415.5C1722.16 415.5 1719.14 416.157 1716.44 417.511L1718.22 421.089ZM1725.43 419.5C1729.72 419.5 1733.44 420.956 1736.68 423.924L1739.38 420.976C1735.42 417.344 1730.74 415.5 1725.43 415.5V419.5ZM1736.68 423.924C1739.85 426.827 1741.43 430.483 1741.43 435.05H1745.43C1745.43 429.417 1743.42 424.673 1739.38 420.976L1736.68 423.924ZM1741.43 435.05C1741.43 438.164 1740.41 441.03 1738.27 443.701L1741.39 446.199C1744.06 442.87 1745.43 439.136 1745.43 435.05H1741.43ZM1738.25 443.722C1736.34 446.185 1733.86 448.263 1730.77 449.944L1732.69 453.456C1736.2 451.537 1739.12 449.115 1741.41 446.178L1738.25 443.722ZM1730.73 449.967C1720.96 455.595 1710.28 460.342 1698.7 464.203L1699.96 467.997C1711.78 464.058 1722.7 459.205 1732.73 453.433L1730.73 449.967ZM1698.73 464.193C1687.61 467.705 1672.39 469.5 1652.98 469.5V473.5C1672.57 473.5 1688.25 471.695 1699.93 468.007L1698.73 464.193ZM1577.83 335.35H1710.58V331.35H1577.83V335.35ZM1712.58 333.235C1711.66 317.359 1707.53 304.347 1700.03 294.35L1696.83 296.75C1703.73 305.953 1707.7 318.141 1708.58 333.465L1712.58 333.235ZM1700.05 294.383C1692.97 284.525 1684.3 277.236 1674.06 272.579L1672.4 276.221C1681.96 280.564 1690.09 287.375 1696.81 296.717L1700.05 294.383ZM1674.06 272.579C1663.93 267.977 1653.9 265.65 1643.98 265.65V269.65C1653.26 269.65 1662.73 271.823 1672.4 276.221L1674.06 272.579ZM1643.98 265.65C1634.06 265.65 1624.03 267.977 1613.9 272.579L1615.56 276.221C1625.23 271.823 1634.7 269.65 1643.98 269.65V265.65ZM1613.9 272.579C1603.66 277.236 1594.99 284.525 1587.91 294.383L1591.15 296.717C1597.87 287.375 1606 280.564 1615.56 276.221L1613.9 272.579ZM1587.91 294.383C1580.72 304.375 1576.75 317.375 1575.83 333.235L1579.83 333.465C1580.71 318.125 1584.54 305.925 1591.15 296.717L1587.91 294.383ZM1811.11 463.4L1812.53 461.986L1812.53 461.986L1811.11 463.4ZM1811.11 241.1L1812.53 242.514L1812.53 242.514L1811.11 241.1ZM1839.91 241.1L1838.5 242.514L1838.52 242.54L1838.55 242.566L1839.91 241.1ZM1846.21 274.4H1844.21V279.551L1847.69 275.75L1846.21 274.4ZM1879.96 246.05L1881.05 247.726L1881.06 247.72L1879.96 246.05ZM1973.56 245.15L1972.44 246.808L1972.46 246.817L1972.47 246.827L1973.56 245.15ZM2001.01 277.1L1999.2 277.946L1999.2 277.954L1999.21 277.961L2001.01 277.1ZM2004.16 463.4L2002.8 461.934L2002.77 461.96L2002.75 461.986L2004.16 463.4ZM1975.36 463.4L1973.95 464.814L1973.95 464.814L1975.36 463.4ZM1957.81 285.65L1956.22 286.858L1956.24 286.885L1956.26 286.911L1957.81 285.65ZM1877.71 283.85L1878.89 285.469L1878.89 285.469L1877.71 283.85ZM1846.21 314L1844.64 312.761L1844.21 313.306V314H1846.21ZM1839.91 463.4L1838.55 461.934L1838.52 461.96L1838.5 461.986L1839.91 463.4ZM1825.51 467.25C1820.32 467.25 1816.04 465.497 1812.53 461.986L1809.7 464.814C1813.99 469.103 1819.3 471.25 1825.51 471.25V467.25ZM1812.53 461.986C1809.02 458.475 1807.26 454.189 1807.26 449H1803.26C1803.26 455.211 1805.41 460.525 1809.7 464.814L1812.53 461.986ZM1807.26 449V255.95H1803.26V449H1807.26ZM1807.26 255.95C1807.26 250.429 1809.04 246.004 1812.53 242.514L1809.7 239.686C1805.39 243.996 1803.26 249.471 1803.26 255.95H1807.26ZM1812.53 242.514C1816.04 239.003 1820.32 237.25 1825.51 237.25V233.25C1819.3 233.25 1813.99 235.397 1809.7 239.686L1812.53 242.514ZM1825.51 237.25C1830.7 237.25 1834.99 239.003 1838.5 242.514L1841.33 239.686C1837.04 235.397 1831.72 233.25 1825.51 233.25V237.25ZM1838.55 242.566C1842.32 246.068 1844.21 250.477 1844.21 255.95H1848.21C1848.21 249.423 1845.9 243.932 1841.27 239.634L1838.55 242.566ZM1844.21 255.95V274.4H1848.21V255.95H1844.21ZM1847.69 275.75C1857.17 265.384 1868.28 256.041 1881.05 247.726L1878.87 244.374C1865.84 252.859 1854.46 262.416 1844.74 273.05L1847.69 275.75ZM1881.06 247.72C1893.86 239.287 1910.1 235 1929.91 235V231C1909.53 231 1892.47 235.413 1878.86 244.38L1881.06 247.72ZM1929.91 235C1946.69 235 1960.83 238.969 1972.44 246.808L1974.68 243.492C1962.3 235.131 1947.34 231 1929.91 231V235ZM1972.47 246.827C1984.15 254.414 1993.05 264.77 1999.2 277.946L2002.83 276.254C1996.37 262.43 1986.98 251.486 1974.65 243.473L1972.47 246.827ZM1999.21 277.961C2005.37 290.865 2008.46 305.266 2008.46 321.2H2012.46C2012.46 304.734 2009.26 289.735 2002.82 276.239L1999.21 277.961ZM2008.46 321.2V449H2012.46V321.2H2008.46ZM2008.46 449C2008.46 454.14 2006.6 458.41 2002.8 461.934L2005.52 464.866C2010.13 460.59 2012.46 455.26 2012.46 449H2008.46ZM2002.75 461.986C1999.24 465.497 1994.95 467.25 1989.76 467.25V471.25C1995.97 471.25 2001.29 469.103 2005.58 464.814L2002.75 461.986ZM1989.76 467.25C1984.57 467.25 1980.29 465.497 1976.78 461.986L1973.95 464.814C1978.24 469.103 1983.55 471.25 1989.76 471.25V467.25ZM1976.78 461.986C1973.27 458.475 1971.51 454.189 1971.51 449H1967.51C1967.51 455.211 1969.66 460.525 1973.95 464.814L1976.78 461.986ZM1971.51 449V325.7H1967.51V449H1971.51ZM1971.51 325.7C1971.51 308.315 1967.55 294.46 1959.37 284.389L1956.26 286.911C1963.68 296.04 1967.51 308.885 1967.51 325.7H1971.51ZM1959.41 284.442C1951.39 273.855 1938.06 268.8 1920.01 268.8V272.8C1937.37 272.8 1949.24 277.645 1956.22 286.858L1959.41 284.442ZM1920.01 268.8C1903.43 268.8 1888.91 273.26 1876.54 282.231L1878.89 285.469C1890.51 277.04 1904.19 272.8 1920.01 272.8V268.8ZM1876.54 282.231C1864.39 291.036 1853.76 301.214 1844.64 312.761L1847.78 315.239C1856.67 303.986 1867.03 294.064 1878.89 285.469L1876.54 282.231ZM1844.21 314V449H1848.21V314H1844.21ZM1844.21 449C1844.21 454.14 1842.35 458.41 1838.55 461.934L1841.27 464.866C1845.88 460.59 1848.21 455.26 1848.21 449H1844.21ZM1838.5 461.986C1834.99 465.497 1830.7 467.25 1825.51 467.25V471.25C1831.72 471.25 1837.04 469.103 1841.33 464.814L1838.5 461.986ZM2122.23 457.55L2121.25 459.292L2121.26 459.296L2121.26 459.3L2122.23 457.55ZM2081.28 417.05L2079.56 418.07L2079.57 418.081L2079.57 418.092L2081.28 417.05ZM2081.28 287.45L2079.57 286.408L2079.57 286.419L2079.56 286.43L2081.28 287.45ZM2122.23 246.95L2121.26 245.2L2121.26 245.204L2121.25 245.208L2122.23 246.95ZM2217.18 242L2216.32 243.806L2216.32 243.806L2217.18 242ZM2251.38 267.2L2249.93 268.573L2253.38 272.23V267.2H2251.38ZM2257.23 142.1L2255.87 140.634L2255.84 140.66L2255.82 140.686L2257.23 142.1ZM2286.48 142.1L2287.9 140.686L2287.9 140.686L2286.48 142.1ZM2286.48 463.4L2287.9 464.814L2287.9 464.814L2286.48 463.4ZM2257.23 463.4L2255.82 464.814L2255.84 464.84L2255.87 464.866L2257.23 463.4ZM2251.38 437.3H2253.38V432.27L2249.93 435.927L2251.38 437.3ZM2217.18 462.5L2216.32 460.694L2217.18 462.5ZM2220.33 423.8L2221.26 425.571L2221.28 425.562L2221.3 425.552L2220.33 423.8ZM2251.38 399.5L2252.86 400.843L2253.38 400.271V399.5H2251.38ZM2251.38 305H2253.38V304.229L2252.86 303.657L2251.38 305ZM2220.33 281.15L2219.37 282.902L2219.38 282.912L2219.4 282.921L2220.33 281.15ZM2127.18 291.95L2128.58 293.38L2128.58 293.379L2127.18 291.95ZM2127.18 412.55L2125.77 413.964L2125.78 413.972L2125.78 413.979L2127.18 412.55ZM2174.43 469.5C2156.79 469.5 2139.72 464.947 2123.2 455.8L2121.26 459.3C2138.34 468.753 2156.07 473.5 2174.43 473.5V469.5ZM2123.21 455.808C2107.04 446.691 2093.63 433.445 2082.99 416.008L2079.57 418.092C2090.54 436.055 2104.42 449.809 2121.25 459.292L2123.21 455.808ZM2083 416.03C2072.72 398.704 2067.53 377.476 2067.53 352.25H2063.53C2063.53 378.024 2068.84 399.996 2079.56 418.07L2083 416.03ZM2067.53 352.25C2067.53 327.024 2072.72 305.796 2083 288.47L2079.56 286.43C2068.84 304.504 2063.53 326.476 2063.53 352.25H2067.53ZM2082.99 288.492C2093.63 271.055 2107.04 257.809 2123.21 248.692L2121.25 245.208C2104.42 254.691 2090.54 268.445 2079.57 286.408L2082.99 288.492ZM2123.2 248.7C2139.72 239.553 2156.79 235 2174.43 235V231C2156.07 231 2138.34 235.747 2121.26 245.2L2123.2 248.7ZM2174.43 235C2190.08 235 2204.03 237.95 2216.32 243.806L2218.04 240.194C2205.14 234.05 2190.59 231 2174.43 231V235ZM2216.32 243.806C2228.68 249.693 2239.89 257.941 2249.93 268.573L2252.84 265.827C2242.48 254.859 2230.88 246.307 2218.04 240.194L2216.32 243.806ZM2253.38 267.2V156.95H2249.38V267.2H2253.38ZM2253.38 156.95C2253.38 151.429 2255.16 147.004 2258.65 143.514L2255.82 140.686C2251.51 144.996 2249.38 150.471 2249.38 156.95H2253.38ZM2258.59 143.566C2262.42 140.007 2266.89 138.25 2272.08 138.25V134.25C2265.87 134.25 2260.44 136.393 2255.87 140.634L2258.59 143.566ZM2272.08 138.25C2277.27 138.25 2281.56 140.003 2285.07 143.514L2287.9 140.686C2283.61 136.397 2278.29 134.25 2272.08 134.25V138.25ZM2285.07 143.514C2288.56 147.004 2290.33 151.429 2290.33 156.95H2294.33C2294.33 150.471 2292.21 144.996 2287.9 140.686L2285.07 143.514ZM2290.33 156.95V449H2294.33V156.95H2290.33ZM2290.33 449C2290.33 454.189 2288.58 458.475 2285.07 461.986L2287.9 464.814C2292.18 460.525 2294.33 455.211 2294.33 449H2290.33ZM2285.07 461.986C2281.56 465.497 2277.27 467.25 2272.08 467.25V471.25C2278.29 471.25 2283.61 469.103 2287.9 464.814L2285.07 461.986ZM2272.08 467.25C2266.89 467.25 2262.42 465.493 2258.59 461.934L2255.87 464.866C2260.44 469.107 2265.87 471.25 2272.08 471.25V467.25ZM2258.65 461.986C2255.13 458.475 2253.38 454.189 2253.38 449H2249.38C2249.38 455.211 2251.53 460.525 2255.82 464.814L2258.65 461.986ZM2253.38 449V437.3H2249.38V449H2253.38ZM2249.93 435.927C2239.89 446.559 2228.68 454.807 2216.32 460.694L2218.04 464.306C2230.88 458.193 2242.48 449.641 2252.84 438.673L2249.93 435.927ZM2216.32 460.694C2204.03 466.55 2190.08 469.5 2174.43 469.5V473.5C2190.59 473.5 2205.14 470.45 2218.04 464.306L2216.32 460.694ZM2180.28 435.25C2195.28 435.25 2208.95 432.034 2221.26 425.571L2219.4 422.029C2207.71 428.166 2194.69 431.25 2180.28 431.25V435.25ZM2221.3 425.552C2233.48 418.852 2244.01 410.616 2252.86 400.843L2249.9 398.157C2241.36 407.584 2231.18 415.548 2219.37 422.048L2221.3 425.552ZM2253.38 399.5V305H2249.38V399.5H2253.38ZM2252.86 303.657C2244 293.875 2233.46 285.783 2221.26 279.379L2219.4 282.921C2231.2 289.117 2241.36 296.925 2249.9 306.343L2252.86 303.657ZM2221.3 279.398C2208.98 272.623 2195.29 269.25 2180.28 269.25V273.25C2194.67 273.25 2207.68 276.477 2219.37 282.902L2221.3 279.398ZM2180.28 269.25C2158.5 269.25 2140.29 276.324 2125.78 290.521L2128.58 293.379C2142.28 279.976 2159.46 273.25 2180.28 273.25V269.25ZM2125.78 290.52C2111.47 304.522 2104.48 325.223 2104.48 352.25H2108.48C2108.48 325.877 2115.29 306.378 2128.58 293.38L2125.78 290.52ZM2104.48 352.25C2104.48 378.988 2111.48 399.672 2125.77 413.964L2128.6 411.136C2115.29 397.828 2108.48 378.312 2108.48 352.25H2104.48ZM2125.78 413.979C2140.29 428.176 2158.5 435.25 2180.28 435.25V431.25C2159.46 431.25 2142.28 424.524 2128.58 411.121L2125.78 413.979Z" fill="white" mask="url(#path-1-outside-1_57_17)"/>
<mask id="mask0_57_17" style="mask-type:alpha" maskUnits="userSpaceOnUse" x="0" y="0" width="650" height="650">
<path d="M0 200C0 105.719 0 58.5786 29.2893 29.2893C58.5786 0 105.719 0 200 0H450C544.281 0 591.421 0 620.711 29.2893C650 58.5786 650 105.719 650 200V450C650 544.281 650 591.421 620.711 620.711C591.421 650 544.281 650 450 650H200C105.719 650 58.5786 650 29.2893 620.711C0 591.421 0 544.281 0 450V200Z" fill="black"/>
</mask>
<g mask="url(#mask0_57_17)">
<path d="M0 200C0 105.719 0 58.5786 29.2893 29.2893C58.5786 0 105.719 0 200 0H450C544.281 0 591.421 0 620.711 29.2893C650 58.5786 650 105.719 650 200V450C650 544.281 650 591.421 620.711 620.711C591.421 650 544.281 650 450 650H200C105.719 650 58.5786 650 29.2893 620.711C0 591.421 0 544.281 0 450V200Z" fill="white"/>
<path d="M431.817 203.253C435.699 188.755 437.639 181.506 441.477 181.506C445.314 181.506 447.255 188.755 451.137 203.253L481.758 317.625C488.908 344.332 492.483 357.686 488.449 359.37C484.416 361.055 477.433 349.124 463.467 325.262L450.107 302.435C446.265 295.87 444.344 292.588 441.477 292.588C438.61 292.588 436.689 295.87 432.846 302.435L419.486 325.262C405.521 349.124 398.538 361.055 394.504 359.37C390.471 357.686 394.046 344.332 401.196 317.625L431.817 203.253Z" fill="black"/>
<path d="M467.077 364.883C467.077 385.571 463.002 406.057 455.085 425.171C447.168 444.284 435.564 461.651 420.935 476.28C406.306 490.908 388.939 502.513 369.826 510.43C350.712 518.347 330.227 522.422 309.538 522.422C288.85 522.422 268.365 518.347 249.251 510.43C230.138 502.513 212.771 490.908 198.142 476.28C183.513 461.651 171.909 444.284 163.992 425.171C156.075 406.057 152 385.571 152 364.883L202.528 364.883C202.528 378.936 205.296 392.851 210.674 405.834C216.052 418.817 223.934 430.614 233.871 440.551C243.808 450.488 255.604 458.37 268.587 463.748C281.571 469.125 295.486 471.893 309.538 471.893C323.591 471.893 337.506 469.125 350.489 463.748C363.473 458.37 375.269 450.488 385.206 440.551C395.143 430.614 403.025 418.817 408.403 405.834C413.781 392.851 416.549 378.936 416.549 364.883H467.077Z" fill="black"/>
<path d="M152 156.145C152 142.224 163.285 130.938 177.206 130.938V130.938C191.127 130.938 202.412 142.224 202.412 156.145V366.458C202.412 380.379 191.127 391.665 177.206 391.665V391.665C163.285 391.665 152 380.379 152 366.458V156.145Z" fill="black"/>
<path d="M416.665 152.206C416.665 138.285 427.95 127 441.871 127V127C455.792 127 467.077 138.285 467.077 152.206V362.52C467.077 376.441 455.792 387.726 441.871 387.726V387.726C427.95 387.726 416.665 376.441 416.665 362.52V152.206Z" fill="black"/>
<path d="M419.676 139.67C421.559 133.877 427.78 130.708 433.572 132.59V132.59C439.365 134.472 442.534 140.693 440.652 146.485L366.899 373.475C365.017 379.267 358.796 382.437 353.003 380.555V380.555C347.211 378.673 344.041 372.452 345.923 366.659L419.676 139.67Z" fill="black"/>
<path d="M442.916 147.452C441.034 141.66 444.203 135.439 449.996 133.557V133.557C455.788 131.675 462.009 134.844 463.891 140.637L537.645 367.626C539.527 373.419 536.357 379.64 530.565 381.522V381.522C524.772 383.404 518.551 380.234 516.669 374.442L442.916 147.452Z" fill="black"/>
</g>
</svg>
