<svg width="2785" height="678" viewBox="0 0 2785 678" fill="none" xmlns="http://www.w3.org/2000/svg">
<mask id="path-1-outside-1_73_50" maskUnits="userSpaceOnUse" x="851" y="124" width="1812" height="342" fill="black">
<rect fill="white" x="851" y="124" width="1812" height="342"/>
<path d="M947.665 463.5C919.165 463.5 896.365 455.1 879.265 438.3C862.165 421.2 853.615 398.1 853.615 369V211.5H894.115V369C894.115 387 898.915 401.4 908.515 412.2C918.115 422.7 931.165 427.95 947.665 427.95C964.465 427.95 977.665 422.7 987.265 412.2C997.165 401.4 1002.12 387 1002.12 369V211.5H1042.62V369C1042.62 398.1 1033.92 421.2 1016.52 438.3C999.115 455.1 976.165 463.5 947.665 463.5ZM1208.04 462.6C1180.44 462.6 1158.99 456.45 1143.69 444.15C1128.69 431.55 1121.19 413.85 1121.19 391.05H1161.69C1161.69 402.45 1165.74 411.45 1173.84 418.05C1181.94 424.35 1193.34 427.5 1208.04 427.5H1227.84C1242.84 427.5 1254.39 424.2 1262.49 417.6C1270.89 411 1275.09 401.7 1275.09 389.7C1275.09 368.4 1265.34 356.4 1245.84 353.7L1177.44 343.8C1160.64 341.4 1147.59 334.5 1138.29 323.1C1128.99 311.4 1124.34 296.1 1124.34 277.2C1124.34 255.6 1131.69 238.65 1146.39 226.35C1161.39 214.05 1181.94 207.9 1208.04 207.9H1227.84C1251.84 207.9 1271.34 213.9 1286.34 225.9C1301.64 237.6 1309.89 253.05 1311.09 272.25H1270.14C1269.54 263.55 1265.34 256.35 1257.54 250.65C1250.04 244.95 1240.14 242.1 1227.84 242.1H1208.04C1194.24 242.1 1183.44 245.25 1175.64 251.55C1167.84 257.85 1163.94 266.4 1163.94 277.2C1163.94 294.6 1171.89 304.5 1187.79 306.9L1251.69 315.9C1293.69 321.9 1314.69 346.5 1314.69 389.7C1314.69 412.8 1307.04 430.8 1291.74 443.7C1276.74 456.3 1255.44 462.6 1227.84 462.6H1208.04ZM1487.76 463.5C1458.66 463.5 1435.11 454.8 1417.11 437.4C1399.41 419.7 1390.56 395.4 1390.56 364.5V306C1390.56 275.1 1399.41 250.95 1417.11 233.55C1435.11 215.85 1458.66 207 1487.76 207C1507.26 207 1524.21 210.9 1538.61 218.7C1553.31 226.5 1564.71 237.45 1572.81 251.55C1580.91 265.65 1584.96 282.3 1584.96 301.5V345.6H1430.16V369C1430.16 387.3 1435.41 401.85 1445.91 412.65C1456.41 423.15 1470.36 428.4 1487.76 428.4C1502.76 428.4 1515.06 425.55 1524.66 419.85C1534.56 413.85 1540.56 405.9 1542.66 396H1583.16C1580.46 416.7 1570.41 433.2 1553.01 445.5C1535.61 457.5 1513.86 463.5 1487.76 463.5ZM1430.16 314.1H1545.36V301.5C1545.36 282 1540.26 267 1530.06 256.5C1520.16 245.7 1506.06 240.3 1487.76 240.3C1469.46 240.3 1455.21 245.7 1445.01 256.5C1435.11 267 1430.16 282 1430.16 301.5V314.1ZM1759.39 463.5C1727.59 463.5 1702.24 455.1 1683.34 438.3C1664.44 421.5 1654.99 398.4 1654.99 369H1695.49C1695.49 387.3 1701.34 401.7 1713.04 412.2C1724.74 422.4 1740.19 427.5 1759.39 427.5C1777.99 427.5 1792.84 422.1 1803.94 411.3C1815.04 400.5 1820.59 386.4 1820.59 369C1820.59 355.8 1816.99 344.4 1809.79 334.8C1802.89 324.9 1792.84 318.15 1779.64 314.55L1729.69 300.6C1708.99 294.6 1692.64 283.95 1680.64 268.65C1668.94 253.05 1663.09 234.75 1663.09 213.75C1663.09 196.35 1666.99 181.05 1674.79 167.85C1682.59 154.65 1693.54 144.45 1707.64 137.25C1721.74 129.75 1737.94 126 1756.24 126C1774.84 126 1791.19 129.75 1805.29 137.25C1819.69 144.45 1830.94 154.65 1839.04 167.85C1847.14 180.75 1851.19 195.75 1851.19 212.85H1810.69C1810.69 197.85 1805.59 185.7 1795.39 176.4C1785.19 166.8 1772.14 162 1756.24 162C1740.34 162 1727.44 166.8 1717.54 176.4C1707.64 185.7 1702.69 197.85 1702.69 212.85C1702.69 224.85 1705.84 235.2 1712.14 243.9C1718.74 252.3 1727.89 258.15 1739.59 261.45L1790.89 275.85C1812.79 281.85 1829.74 293.25 1841.74 310.05C1854.04 326.55 1860.19 346.2 1860.19 369C1860.19 397.8 1851.04 420.75 1832.74 437.85C1814.44 454.95 1789.99 463.5 1759.39 463.5ZM2027.41 463.5C1998.31 463.5 1974.76 454.8 1956.76 437.4C1939.06 419.7 1930.21 395.4 1930.21 364.5V306C1930.21 275.1 1939.06 250.95 1956.76 233.55C1974.76 215.85 1998.31 207 2027.41 207C2046.91 207 2063.86 210.9 2078.26 218.7C2092.96 226.5 2104.36 237.45 2112.46 251.55C2120.56 265.65 2124.61 282.3 2124.61 301.5V345.6H1969.81V369C1969.81 387.3 1975.06 401.85 1985.56 412.65C1996.06 423.15 2010.01 428.4 2027.41 428.4C2042.41 428.4 2054.71 425.55 2064.31 419.85C2074.21 413.85 2080.21 405.9 2082.31 396H2122.81C2120.11 416.7 2110.06 433.2 2092.66 445.5C2075.26 457.5 2053.51 463.5 2027.41 463.5ZM1969.81 314.1H2085.01V301.5C2085.01 282 2079.91 267 2069.71 256.5C2059.81 245.7 2045.71 240.3 2027.41 240.3C2009.11 240.3 1994.86 245.7 1984.66 256.5C1974.76 267 1969.81 282 1969.81 301.5V314.1ZM2203.64 459V211.5H2244.14V258.75H2244.59C2246.69 242.25 2253.44 229.5 2264.84 220.5C2276.24 211.5 2291.39 207 2310.29 207C2335.19 207 2354.99 214.65 2369.69 229.95C2384.39 245.25 2391.74 266.1 2391.74 292.5V459H2351.24V299.7C2351.24 280.8 2346.44 266.4 2336.84 256.5C2327.54 246.3 2314.79 241.2 2298.59 241.2C2281.79 241.2 2268.44 246.45 2258.54 256.95C2248.94 267.45 2244.14 282.3 2244.14 301.5V459H2203.64ZM2552.66 463.5C2528.06 463.5 2508.26 455.25 2493.26 438.75C2478.56 422.25 2471.21 399.9 2471.21 371.7V299.25C2471.21 270.75 2478.56 248.25 2493.26 231.75C2507.96 215.25 2527.76 207 2552.66 207C2571.26 207 2586.56 211.65 2598.56 220.95C2610.86 230.25 2618.21 242.85 2620.61 258.75H2621.06L2620.16 202.5V130.5H2660.66V459H2620.16V411.75H2619.71C2617.61 427.95 2610.56 440.7 2598.56 450C2586.56 459 2571.26 463.5 2552.66 463.5ZM2566.16 428.4C2582.96 428.4 2596.16 423.15 2605.76 412.65C2615.36 402.15 2620.16 387.6 2620.16 369V301.5C2620.16 282.9 2615.36 268.35 2605.76 257.85C2596.16 247.35 2582.96 242.1 2566.16 242.1C2549.06 242.1 2535.71 246.6 2526.11 255.6C2516.51 264.3 2511.71 278.85 2511.71 299.25V371.25C2511.71 391.35 2516.51 405.9 2526.11 414.9C2535.71 423.9 2549.06 428.4 2566.16 428.4Z"/>
</mask>
<path d="M947.665 463.5C919.165 463.5 896.365 455.1 879.265 438.3C862.165 421.2 853.615 398.1 853.615 369V211.5H894.115V369C894.115 387 898.915 401.4 908.515 412.2C918.115 422.7 931.165 427.95 947.665 427.95C964.465 427.95 977.665 422.7 987.265 412.2C997.165 401.4 1002.12 387 1002.12 369V211.5H1042.62V369C1042.62 398.1 1033.92 421.2 1016.52 438.3C999.115 455.1 976.165 463.5 947.665 463.5ZM1208.04 462.6C1180.44 462.6 1158.99 456.45 1143.69 444.15C1128.69 431.55 1121.19 413.85 1121.19 391.05H1161.69C1161.69 402.45 1165.74 411.45 1173.84 418.05C1181.94 424.35 1193.34 427.5 1208.04 427.5H1227.84C1242.84 427.5 1254.39 424.2 1262.49 417.6C1270.89 411 1275.09 401.7 1275.09 389.7C1275.09 368.4 1265.34 356.4 1245.84 353.7L1177.44 343.8C1160.64 341.4 1147.59 334.5 1138.29 323.1C1128.99 311.4 1124.34 296.1 1124.34 277.2C1124.34 255.6 1131.69 238.65 1146.39 226.35C1161.39 214.05 1181.94 207.9 1208.04 207.9H1227.84C1251.84 207.9 1271.34 213.9 1286.34 225.9C1301.64 237.6 1309.89 253.05 1311.09 272.25H1270.14C1269.54 263.55 1265.34 256.35 1257.54 250.65C1250.04 244.95 1240.14 242.1 1227.84 242.1H1208.04C1194.24 242.1 1183.44 245.25 1175.64 251.55C1167.84 257.85 1163.94 266.4 1163.94 277.2C1163.94 294.6 1171.89 304.5 1187.79 306.9L1251.69 315.9C1293.69 321.9 1314.69 346.5 1314.69 389.7C1314.69 412.8 1307.04 430.8 1291.74 443.7C1276.74 456.3 1255.44 462.6 1227.84 462.6H1208.04ZM1487.76 463.5C1458.66 463.5 1435.11 454.8 1417.11 437.4C1399.41 419.7 1390.56 395.4 1390.56 364.5V306C1390.56 275.1 1399.41 250.95 1417.11 233.55C1435.11 215.85 1458.66 207 1487.76 207C1507.26 207 1524.21 210.9 1538.61 218.7C1553.31 226.5 1564.71 237.45 1572.81 251.55C1580.91 265.65 1584.96 282.3 1584.96 301.5V345.6H1430.16V369C1430.16 387.3 1435.41 401.85 1445.91 412.65C1456.41 423.15 1470.36 428.4 1487.76 428.4C1502.76 428.4 1515.06 425.55 1524.66 419.85C1534.56 413.85 1540.56 405.9 1542.66 396H1583.16C1580.46 416.7 1570.41 433.2 1553.01 445.5C1535.61 457.5 1513.86 463.5 1487.76 463.5ZM1430.16 314.1H1545.36V301.5C1545.36 282 1540.26 267 1530.06 256.5C1520.16 245.7 1506.06 240.3 1487.76 240.3C1469.46 240.3 1455.21 245.7 1445.01 256.5C1435.11 267 1430.16 282 1430.16 301.5V314.1ZM1759.39 463.5C1727.59 463.5 1702.24 455.1 1683.34 438.3C1664.44 421.5 1654.99 398.4 1654.99 369H1695.49C1695.49 387.3 1701.34 401.7 1713.04 412.2C1724.74 422.4 1740.19 427.5 1759.39 427.5C1777.99 427.5 1792.84 422.1 1803.94 411.3C1815.04 400.5 1820.59 386.4 1820.59 369C1820.59 355.8 1816.99 344.4 1809.79 334.8C1802.89 324.9 1792.84 318.15 1779.64 314.55L1729.69 300.6C1708.99 294.6 1692.64 283.95 1680.64 268.65C1668.94 253.05 1663.09 234.75 1663.09 213.75C1663.09 196.35 1666.99 181.05 1674.79 167.85C1682.59 154.65 1693.54 144.45 1707.64 137.25C1721.74 129.75 1737.94 126 1756.24 126C1774.84 126 1791.19 129.75 1805.29 137.25C1819.69 144.45 1830.94 154.65 1839.04 167.85C1847.14 180.75 1851.19 195.75 1851.19 212.85H1810.69C1810.69 197.85 1805.59 185.7 1795.39 176.4C1785.19 166.8 1772.14 162 1756.24 162C1740.34 162 1727.44 166.8 1717.54 176.4C1707.64 185.7 1702.69 197.85 1702.69 212.85C1702.69 224.85 1705.84 235.2 1712.14 243.9C1718.74 252.3 1727.89 258.15 1739.59 261.45L1790.89 275.85C1812.79 281.85 1829.74 293.25 1841.74 310.05C1854.04 326.55 1860.19 346.2 1860.19 369C1860.19 397.8 1851.04 420.75 1832.74 437.85C1814.44 454.95 1789.99 463.5 1759.39 463.5ZM2027.41 463.5C1998.31 463.5 1974.76 454.8 1956.76 437.4C1939.06 419.7 1930.21 395.4 1930.21 364.5V306C1930.21 275.1 1939.06 250.95 1956.76 233.55C1974.76 215.85 1998.31 207 2027.41 207C2046.91 207 2063.86 210.9 2078.26 218.7C2092.96 226.5 2104.36 237.45 2112.46 251.55C2120.56 265.65 2124.61 282.3 2124.61 301.5V345.6H1969.81V369C1969.81 387.3 1975.06 401.85 1985.56 412.65C1996.06 423.15 2010.01 428.4 2027.41 428.4C2042.41 428.4 2054.71 425.55 2064.31 419.85C2074.21 413.85 2080.21 405.9 2082.31 396H2122.81C2120.11 416.7 2110.06 433.2 2092.66 445.5C2075.26 457.5 2053.51 463.5 2027.41 463.5ZM1969.81 314.1H2085.01V301.5C2085.01 282 2079.91 267 2069.71 256.5C2059.81 245.7 2045.71 240.3 2027.41 240.3C2009.11 240.3 1994.86 245.7 1984.66 256.5C1974.76 267 1969.81 282 1969.81 301.5V314.1ZM2203.64 459V211.5H2244.14V258.75H2244.59C2246.69 242.25 2253.44 229.5 2264.84 220.5C2276.24 211.5 2291.39 207 2310.29 207C2335.19 207 2354.99 214.65 2369.69 229.95C2384.39 245.25 2391.74 266.1 2391.74 292.5V459H2351.24V299.7C2351.24 280.8 2346.44 266.4 2336.84 256.5C2327.54 246.3 2314.79 241.2 2298.59 241.2C2281.79 241.2 2268.44 246.45 2258.54 256.95C2248.94 267.45 2244.14 282.3 2244.14 301.5V459H2203.64ZM2552.66 463.5C2528.06 463.5 2508.26 455.25 2493.26 438.75C2478.56 422.25 2471.21 399.9 2471.21 371.7V299.25C2471.21 270.75 2478.56 248.25 2493.26 231.75C2507.96 215.25 2527.76 207 2552.66 207C2571.26 207 2586.56 211.65 2598.56 220.95C2610.86 230.25 2618.21 242.85 2620.61 258.75H2621.06L2620.16 202.5V130.5H2660.66V459H2620.16V411.75H2619.71C2617.61 427.95 2610.56 440.7 2598.56 450C2586.56 459 2571.26 463.5 2552.66 463.5ZM2566.16 428.4C2582.96 428.4 2596.16 423.15 2605.76 412.65C2615.36 402.15 2620.16 387.6 2620.16 369V301.5C2620.16 282.9 2615.36 268.35 2605.76 257.85C2596.16 247.35 2582.96 242.1 2566.16 242.1C2549.06 242.1 2535.71 246.6 2526.11 255.6C2516.51 264.3 2511.71 278.85 2511.71 299.25V371.25C2511.71 391.35 2516.51 405.9 2526.11 414.9C2535.71 423.9 2549.06 428.4 2566.16 428.4Z" fill="black"/>
<path d="M879.265 438.3L877.851 439.714L877.857 439.72L877.864 439.727L879.265 438.3ZM853.615 211.5V209.5H851.615V211.5H853.615ZM894.115 211.5H896.115V209.5H894.115V211.5ZM908.515 412.2L907.02 413.529L907.03 413.539L907.039 413.55L908.515 412.2ZM987.265 412.2L985.791 410.849L985.789 410.85L987.265 412.2ZM1002.12 211.5V209.5H1000.12V211.5H1002.12ZM1042.62 211.5H1044.62V209.5H1042.62V211.5ZM1016.52 438.3L1017.9 439.739L1017.91 439.733L1017.92 439.726L1016.52 438.3ZM947.665 463.5V461.5C919.584 461.5 897.324 453.238 880.667 436.873L879.265 438.3L877.864 439.727C895.407 456.962 918.747 465.5 947.665 465.5V463.5ZM879.265 438.3L880.679 436.886C864.029 420.235 855.615 397.685 855.615 369H853.615H851.615C851.615 398.515 860.302 422.165 877.851 439.714L879.265 438.3ZM853.615 369H855.615V211.5H853.615H851.615V369H853.615ZM853.615 211.5V213.5H894.115V211.5V209.5H853.615V211.5ZM894.115 211.5H892.115V369H894.115H896.115V211.5H894.115ZM894.115 369H892.115C892.115 387.365 897.021 402.279 907.02 413.529L908.515 412.2L910.01 410.871C900.81 400.521 896.115 386.635 896.115 369H894.115ZM908.515 412.2L907.039 413.55C917.08 424.531 930.702 429.95 947.665 429.95V427.95V425.95C931.628 425.95 919.151 420.869 909.991 410.85L908.515 412.2ZM947.665 427.95V429.95C964.916 429.95 978.694 424.539 988.741 413.55L987.265 412.2L985.789 410.85C976.637 420.861 964.015 425.95 947.665 425.95V427.95ZM987.265 412.2L988.74 413.551C999.051 402.303 1004.12 387.38 1004.12 369H1002.12H1000.12C1000.12 386.62 995.28 400.497 985.791 410.849L987.265 412.2ZM1002.12 369H1004.12V211.5H1002.12H1000.12V369H1002.12ZM1002.12 211.5V213.5H1042.62V211.5V209.5H1002.12V211.5ZM1042.62 211.5H1040.62V369H1042.62H1044.62V211.5H1042.62ZM1042.62 369H1040.62C1040.62 397.675 1032.06 420.221 1015.11 436.874L1016.52 438.3L1017.92 439.726C1035.77 422.179 1044.62 398.525 1044.62 369H1042.62ZM1016.52 438.3L1015.13 436.861C998.164 453.238 975.746 461.5 947.665 461.5V463.5V465.5C976.585 465.5 1000.07 456.962 1017.9 439.739L1016.52 438.3ZM1143.69 444.15L1142.4 445.681L1142.42 445.695L1142.44 445.709L1143.69 444.15ZM1121.19 391.05V389.05H1119.19V391.05H1121.19ZM1161.69 391.05H1163.69V389.05H1161.69V391.05ZM1173.84 418.05L1172.58 419.6L1172.59 419.615L1172.61 419.629L1173.84 418.05ZM1262.49 417.6L1261.25 416.027L1261.24 416.038L1261.23 416.05L1262.49 417.6ZM1245.84 353.7L1245.55 355.679L1245.57 355.681L1245.84 353.7ZM1177.44 343.8L1177.73 341.821L1177.72 341.82L1177.44 343.8ZM1138.29 323.1L1136.72 324.344L1136.73 324.354L1136.74 324.364L1138.29 323.1ZM1146.39 226.35L1145.12 224.803L1145.11 224.81L1145.11 224.816L1146.39 226.35ZM1286.34 225.9L1285.09 227.462L1285.11 227.475L1285.12 227.489L1286.34 225.9ZM1311.09 272.25V274.25H1313.22L1313.09 272.125L1311.09 272.25ZM1270.14 272.25L1268.14 272.388L1268.27 274.25H1270.14V272.25ZM1257.54 250.65L1256.33 252.242L1256.34 252.254L1256.36 252.265L1257.54 250.65ZM1175.64 251.55L1176.9 253.106L1175.64 251.55ZM1187.79 306.9L1187.49 308.878L1187.5 308.879L1187.51 308.88L1187.79 306.9ZM1251.69 315.9L1251.97 313.92L1251.97 313.92L1251.69 315.9ZM1291.74 443.7L1293.03 445.231L1293.03 445.229L1291.74 443.7ZM1208.04 462.6V460.6C1180.71 460.6 1159.77 454.509 1144.94 442.591L1143.69 444.15L1142.44 445.709C1158.21 458.391 1180.17 464.6 1208.04 464.6V462.6ZM1143.69 444.15L1144.98 442.619C1130.5 430.463 1123.19 413.367 1123.19 391.05H1121.19H1119.19C1119.19 414.333 1126.87 432.637 1142.4 445.681L1143.69 444.15ZM1121.19 391.05V393.05H1161.69V391.05V389.05H1121.19V391.05ZM1161.69 391.05H1159.69C1159.69 402.989 1163.96 412.583 1172.58 419.6L1173.84 418.05L1175.1 416.5C1167.52 410.317 1163.69 401.911 1163.69 391.05H1161.69ZM1173.84 418.05L1172.61 419.629C1181.19 426.298 1193.08 429.5 1208.04 429.5V427.5V425.5C1193.6 425.5 1182.69 422.402 1175.07 416.471L1173.84 418.05ZM1208.04 427.5V429.5H1227.84V427.5V425.5H1208.04V427.5ZM1227.84 427.5V429.5C1243.1 429.5 1255.17 426.145 1263.75 419.15L1262.49 417.6L1261.23 416.05C1253.61 422.255 1242.58 425.5 1227.84 425.5V427.5ZM1262.49 417.6L1263.73 419.173C1272.67 412.143 1277.09 402.228 1277.09 389.7H1275.09H1273.09C1273.09 401.172 1269.11 409.857 1261.25 416.027L1262.49 417.6ZM1275.09 389.7H1277.09C1277.09 378.763 1274.59 369.934 1269.33 363.464C1264.05 356.972 1256.22 353.119 1246.11 351.719L1245.84 353.7L1245.57 355.681C1254.96 356.981 1261.75 360.478 1266.22 365.986C1270.72 371.516 1273.09 379.337 1273.09 389.7H1275.09ZM1245.84 353.7L1246.13 351.721L1177.73 341.821L1177.44 343.8L1177.15 345.779L1245.55 355.679L1245.84 353.7ZM1177.44 343.8L1177.72 341.82C1161.34 339.479 1148.77 332.787 1139.84 321.836L1138.29 323.1L1136.74 324.364C1146.41 336.213 1159.94 343.321 1177.16 345.78L1177.44 343.8ZM1138.29 323.1L1139.86 321.855C1130.9 310.594 1126.34 295.77 1126.34 277.2H1124.34H1122.34C1122.34 296.43 1127.08 312.206 1136.72 324.344L1138.29 323.1ZM1124.34 277.2H1126.34C1126.34 256.108 1133.49 239.753 1147.67 227.884L1146.39 226.35L1145.11 224.816C1129.89 237.547 1122.34 255.092 1122.34 277.2H1124.34ZM1146.39 226.35L1147.66 227.897C1162.19 215.977 1182.24 209.9 1208.04 209.9V207.9V205.9C1181.64 205.9 1160.59 212.123 1145.12 224.803L1146.39 226.35ZM1208.04 207.9V209.9H1227.84V207.9V205.9H1208.04V207.9ZM1227.84 207.9V209.9C1251.5 209.9 1270.53 215.81 1285.09 227.462L1286.34 225.9L1287.59 224.338C1272.15 211.99 1252.18 205.9 1227.84 205.9V207.9ZM1286.34 225.9L1285.12 227.489C1299.97 238.837 1307.93 253.754 1309.09 272.375L1311.09 272.25L1313.09 272.125C1311.85 252.346 1303.31 236.363 1287.55 224.311L1286.34 225.9ZM1311.09 272.25V270.25H1270.14V272.25V274.25H1311.09V272.25ZM1270.14 272.25L1272.13 272.112C1271.49 262.756 1266.94 255.041 1258.72 249.035L1257.54 250.65L1256.36 252.265C1263.74 257.659 1267.59 264.344 1268.14 272.388L1270.14 272.25ZM1257.54 250.65L1258.75 249.058C1250.81 243.022 1240.44 240.1 1227.84 240.1V242.1V244.1C1239.84 244.1 1249.27 246.878 1256.33 252.242L1257.54 250.65ZM1227.84 242.1V240.1H1208.04V242.1V244.1H1227.84V242.1ZM1208.04 242.1V240.1C1193.95 240.1 1182.65 243.315 1174.38 249.994L1175.64 251.55L1176.9 253.106C1184.23 247.185 1194.53 244.1 1208.04 244.1V242.1ZM1175.64 251.55L1174.38 249.994C1166.07 256.706 1161.94 265.849 1161.94 277.2H1163.94H1165.94C1165.94 266.951 1169.61 258.994 1176.9 253.106L1175.64 251.55ZM1163.94 277.2H1161.94C1161.94 286.188 1163.99 293.511 1168.34 298.927C1172.71 304.365 1179.18 307.623 1187.49 308.878L1187.79 306.9L1188.09 304.922C1180.5 303.777 1175.04 300.885 1171.46 296.423C1167.86 291.939 1165.94 285.612 1165.94 277.2H1163.94ZM1187.79 306.9L1187.51 308.88L1251.41 317.88L1251.69 315.9L1251.97 313.92L1188.07 304.92L1187.79 306.9ZM1251.69 315.9L1251.41 317.88C1272.08 320.833 1287.32 328.322 1297.42 340.149C1307.52 351.98 1312.69 368.415 1312.69 389.7H1314.69H1316.69C1316.69 367.785 1311.36 350.32 1300.46 337.551C1289.56 324.778 1273.3 316.967 1251.97 313.92L1251.69 315.9ZM1314.69 389.7H1312.69C1312.69 412.312 1305.23 429.712 1290.45 442.171L1291.74 443.7L1293.03 445.229C1308.85 431.888 1316.69 413.288 1316.69 389.7H1314.69ZM1291.74 443.7L1290.45 442.169C1275.94 454.363 1255.16 460.6 1227.84 460.6V462.6V464.6C1255.72 464.6 1277.54 458.237 1293.03 445.231L1291.74 443.7ZM1227.84 462.6V460.6H1208.04V462.6V464.6H1227.84V462.6ZM1417.11 437.4L1415.7 438.814L1415.71 438.826L1415.72 438.838L1417.11 437.4ZM1417.11 233.55L1418.52 234.976L1418.52 234.976L1417.11 233.55ZM1538.61 218.7L1537.66 220.459L1537.67 220.463L1537.68 220.467L1538.61 218.7ZM1584.96 345.6V347.6H1586.96V345.6H1584.96ZM1430.16 345.6V343.6H1428.16V345.6H1430.16ZM1445.91 412.65L1444.48 414.044L1444.49 414.054L1444.5 414.064L1445.91 412.65ZM1524.66 419.85L1525.68 421.57L1525.69 421.565L1525.7 421.56L1524.66 419.85ZM1542.66 396V394H1541.04L1540.71 395.585L1542.66 396ZM1583.16 396L1585.15 396.259L1585.44 394H1583.16V396ZM1553.01 445.5L1554.15 447.146L1554.16 447.14L1554.17 447.133L1553.01 445.5ZM1430.16 314.1H1428.16V316.1H1430.16V314.1ZM1545.36 314.1V316.1H1547.36V314.1H1545.36ZM1530.06 256.5L1528.59 257.851L1528.61 257.873L1528.63 257.894L1530.06 256.5ZM1445.01 256.5L1443.56 255.127L1443.56 255.128L1445.01 256.5ZM1487.76 463.5V461.5C1459.09 461.5 1436.07 452.943 1418.5 435.962L1417.11 437.4L1415.72 438.838C1434.16 456.657 1458.24 465.5 1487.76 465.5V463.5ZM1417.11 437.4L1418.53 435.986C1401.29 418.745 1392.56 395.001 1392.56 364.5H1390.56H1388.56C1388.56 395.799 1397.54 420.655 1415.7 438.814L1417.11 437.4ZM1390.56 364.5H1392.56V306H1390.56H1388.56V364.5H1390.56ZM1390.56 306H1392.56C1392.56 275.497 1401.29 251.913 1418.52 234.976L1417.11 233.55L1415.71 232.124C1397.54 249.987 1388.56 274.703 1388.56 306H1390.56ZM1417.11 233.55L1418.52 234.976C1436.08 217.7 1459.1 209 1487.76 209V207V205C1458.23 205 1434.14 214 1415.71 232.124L1417.11 233.55ZM1487.76 207V209C1506.99 209 1523.6 212.845 1537.66 220.459L1538.61 218.7L1539.57 216.941C1524.82 208.955 1507.53 205 1487.76 205V207ZM1538.61 218.7L1537.68 220.467C1552.05 228.094 1563.17 238.781 1571.08 252.546L1572.81 251.55L1574.55 250.554C1566.26 236.119 1554.58 224.906 1539.55 216.933L1538.61 218.7ZM1572.81 251.55L1571.08 252.546C1578.98 266.292 1582.96 282.586 1582.96 301.5H1584.96H1586.96C1586.96 282.014 1582.85 265.008 1574.55 250.554L1572.81 251.55ZM1584.96 301.5H1582.96V345.6H1584.96H1586.96V301.5H1584.96ZM1584.96 345.6V343.6H1430.16V345.6V347.6H1584.96V345.6ZM1430.16 345.6H1428.16V369H1430.16H1432.16V345.6H1430.16ZM1430.16 369H1428.16C1428.16 387.702 1433.54 402.794 1444.48 414.044L1445.91 412.65L1447.35 411.256C1437.29 400.906 1432.16 386.898 1432.16 369H1430.16ZM1445.91 412.65L1444.5 414.064C1455.44 425.003 1469.93 430.4 1487.76 430.4V428.4V426.4C1470.8 426.4 1457.39 421.297 1447.33 411.236L1445.91 412.65ZM1487.76 428.4V430.4C1503 430.4 1515.69 427.506 1525.68 421.57L1524.66 419.85L1523.64 418.13C1514.44 423.594 1502.52 426.4 1487.76 426.4V428.4ZM1524.66 419.85L1525.7 421.56C1536 415.319 1542.39 406.935 1544.62 396.415L1542.66 396L1540.71 395.585C1538.74 404.865 1533.13 412.381 1523.63 418.14L1524.66 419.85ZM1542.66 396V398H1583.16V396V394H1542.66V396ZM1583.16 396L1581.18 395.741C1578.55 415.875 1568.81 431.882 1551.86 443.867L1553.01 445.5L1554.17 447.133C1572.01 434.518 1582.37 417.525 1585.15 396.259L1583.16 396ZM1553.01 445.5L1551.88 443.854C1534.88 455.574 1513.55 461.5 1487.76 461.5V463.5V465.5C1514.17 465.5 1536.34 459.426 1554.15 447.146L1553.01 445.5ZM1430.16 314.1V316.1H1545.36V314.1V312.1H1430.16V314.1ZM1545.36 314.1H1547.36V301.5H1545.36H1543.36V314.1H1545.36ZM1545.36 301.5H1547.36C1547.36 281.657 1542.17 266.09 1531.5 255.106L1530.06 256.5L1528.63 257.894C1538.36 267.91 1543.36 282.343 1543.36 301.5H1545.36ZM1530.06 256.5L1531.54 255.149C1521.17 243.837 1506.47 238.3 1487.76 238.3V240.3V242.3C1505.65 242.3 1519.16 247.563 1528.59 257.851L1530.06 256.5ZM1487.76 240.3V238.3C1469.05 238.3 1454.22 243.837 1443.56 255.127L1445.01 256.5L1446.47 257.873C1456.21 247.563 1469.88 242.3 1487.76 242.3V240.3ZM1445.01 256.5L1443.56 255.128C1433.2 266.113 1428.16 281.672 1428.16 301.5H1430.16H1432.16C1432.16 282.327 1437.03 267.887 1446.47 257.872L1445.01 256.5ZM1430.16 301.5H1428.16V314.1H1430.16H1432.16V301.5H1430.16ZM1683.34 438.3L1682.01 439.795L1683.34 438.3ZM1654.99 369V367H1652.99V369H1654.99ZM1695.49 369H1697.49V367H1695.49V369ZM1713.04 412.2L1711.7 413.688L1711.71 413.698L1711.72 413.708L1713.04 412.2ZM1803.94 411.3L1802.54 409.867L1803.94 411.3ZM1809.79 334.8L1808.15 335.944L1808.17 335.972L1808.19 336L1809.79 334.8ZM1779.64 314.55L1779.1 316.476L1779.11 316.48L1779.64 314.55ZM1729.69 300.6L1729.13 302.521L1729.14 302.524L1729.15 302.526L1729.69 300.6ZM1680.64 268.65L1679.04 269.85L1679.05 269.867L1679.06 269.884L1680.64 268.65ZM1674.79 167.85L1676.51 168.867L1674.79 167.85ZM1707.64 137.25L1708.55 139.031L1708.56 139.024L1708.58 139.016L1707.64 137.25ZM1805.29 137.25L1804.35 139.016L1804.37 139.028L1804.39 139.039L1805.29 137.25ZM1839.04 167.85L1837.33 168.896L1837.34 168.905L1837.34 168.914L1839.04 167.85ZM1851.19 212.85V214.85H1853.19V212.85H1851.19ZM1810.69 212.85H1808.69V214.85H1810.69V212.85ZM1795.39 176.4L1794.02 177.856L1794.03 177.867L1794.04 177.878L1795.39 176.4ZM1717.54 176.4L1718.91 177.858L1718.92 177.847L1718.93 177.836L1717.54 176.4ZM1712.14 243.9L1710.52 245.073L1710.54 245.105L1710.57 245.136L1712.14 243.9ZM1739.59 261.45L1739.04 263.375L1739.05 263.376L1739.59 261.45ZM1790.89 275.85L1790.35 277.776L1790.36 277.779L1790.89 275.85ZM1841.74 310.05L1840.11 311.212L1840.12 311.229L1840.13 311.245L1841.74 310.05ZM1832.74 437.85L1831.37 436.389L1832.74 437.85ZM1759.39 463.5V461.5C1727.95 461.5 1703.11 453.202 1684.67 436.805L1683.34 438.3L1682.01 439.795C1701.36 456.998 1727.23 465.5 1759.39 465.5V463.5ZM1683.34 438.3L1684.67 436.805C1666.26 420.448 1656.99 397.931 1656.99 369H1654.99H1652.99C1652.99 398.869 1662.61 422.552 1682.01 439.795L1683.34 438.3ZM1654.99 369V371H1695.49V369V367H1654.99V369ZM1695.49 369H1693.49C1693.49 387.765 1699.51 402.746 1711.7 413.688L1713.04 412.2L1714.37 410.712C1703.17 400.654 1697.49 386.835 1697.49 369H1695.49ZM1713.04 412.2L1711.72 413.708C1723.87 424.295 1739.82 429.5 1759.39 429.5V427.5V425.5C1740.55 425.5 1725.61 420.505 1714.35 410.692L1713.04 412.2ZM1759.39 427.5V429.5C1778.4 429.5 1793.79 423.968 1805.33 412.733L1803.94 411.3L1802.54 409.867C1791.89 420.232 1777.58 425.5 1759.39 425.5V427.5ZM1803.94 411.3L1805.33 412.733C1816.87 401.509 1822.59 386.867 1822.59 369H1820.59H1818.59C1818.59 385.933 1813.21 399.491 1802.54 409.867L1803.94 411.3ZM1820.59 369H1822.59C1822.59 355.413 1818.87 343.581 1811.39 333.6L1809.79 334.8L1808.19 336C1815.1 345.219 1818.59 356.187 1818.59 369H1820.59ZM1809.79 334.8L1811.43 333.656C1804.22 323.321 1793.75 316.326 1780.16 312.62L1779.64 314.55L1779.11 316.48C1791.92 319.974 1801.55 326.479 1808.15 335.944L1809.79 334.8ZM1779.64 314.55L1780.18 312.624L1730.23 298.674L1729.69 300.6L1729.15 302.526L1779.1 316.476L1779.64 314.55ZM1729.69 300.6L1730.24 298.679C1709.9 292.783 1693.93 282.35 1682.21 267.416L1680.64 268.65L1679.06 269.884C1691.35 285.55 1708.07 296.418 1729.13 302.521L1729.69 300.6ZM1680.64 268.65L1682.24 267.45C1670.82 252.223 1665.09 234.353 1665.09 213.75H1663.09H1661.09C1661.09 235.147 1667.06 253.877 1679.04 269.85L1680.64 268.65ZM1663.09 213.75H1665.09C1665.09 196.659 1668.92 181.719 1676.51 168.867L1674.79 167.85L1673.07 166.833C1665.06 180.38 1661.09 196.041 1661.09 213.75H1663.09ZM1674.79 167.85L1676.51 168.867C1684.11 156.005 1694.77 146.065 1708.55 139.031L1707.64 137.25L1706.73 135.469C1692.3 142.835 1681.07 153.295 1673.07 166.833L1674.79 167.85ZM1707.64 137.25L1708.58 139.016C1722.35 131.691 1738.22 128 1756.24 128V126V124C1737.66 124 1721.13 127.809 1706.7 135.484L1707.64 137.25ZM1756.24 126V128C1774.56 128 1790.58 131.693 1804.35 139.016L1805.29 137.25L1806.23 135.484C1791.79 127.807 1775.11 124 1756.24 124V126ZM1805.29 137.25L1804.39 139.039C1818.47 146.079 1829.44 156.027 1837.33 168.896L1839.04 167.85L1840.74 166.804C1832.44 153.273 1820.9 142.821 1806.18 135.461L1805.29 137.25ZM1839.04 167.85L1837.34 168.914C1845.22 181.457 1849.19 196.079 1849.19 212.85H1851.19H1853.19C1853.19 195.421 1849.06 180.043 1840.73 166.786L1839.04 167.85ZM1851.19 212.85V210.85H1810.69V212.85V214.85H1851.19V212.85ZM1810.69 212.85H1812.69C1812.69 197.342 1807.39 184.636 1796.74 174.922L1795.39 176.4L1794.04 177.878C1803.79 186.764 1808.69 198.358 1808.69 212.85H1810.69ZM1795.39 176.4L1796.76 174.944C1786.14 164.947 1772.57 160 1756.24 160V162V164C1771.7 164 1784.24 168.653 1794.02 177.856L1795.39 176.4ZM1756.24 162V160C1739.9 160 1726.48 164.947 1716.15 174.964L1717.54 176.4L1718.93 177.836C1728.4 168.653 1740.77 164 1756.24 164V162ZM1717.54 176.4L1716.17 174.942C1705.82 184.662 1700.69 197.362 1700.69 212.85H1702.69H1704.69C1704.69 198.338 1709.45 186.738 1718.91 177.858L1717.54 176.4ZM1702.69 212.85H1700.69C1700.69 225.22 1703.94 235.992 1710.52 245.073L1712.14 243.9L1713.76 242.727C1707.73 234.408 1704.69 224.48 1704.69 212.85H1702.69ZM1712.14 243.9L1710.57 245.136C1717.46 253.913 1727 259.976 1739.04 263.375L1739.59 261.45L1740.13 259.525C1728.78 256.324 1720.01 250.687 1713.71 242.664L1712.14 243.9ZM1739.59 261.45L1739.05 263.376L1790.35 277.776L1790.89 275.85L1791.43 273.924L1740.13 259.524L1739.59 261.45ZM1790.89 275.85L1790.36 277.779C1811.86 283.67 1828.4 294.825 1840.11 311.212L1841.74 310.05L1843.37 308.888C1831.07 291.675 1813.71 280.03 1791.42 273.921L1790.89 275.85ZM1841.74 310.05L1840.13 311.245C1852.15 327.363 1858.19 346.582 1858.19 369H1860.19H1862.19C1862.19 345.818 1855.93 325.737 1843.34 308.855L1841.74 310.05ZM1860.19 369H1858.19C1858.19 397.337 1849.21 419.725 1831.37 436.389L1832.74 437.85L1834.1 439.311C1852.87 421.775 1862.19 398.263 1862.19 369H1860.19ZM1832.74 437.85L1831.37 436.389C1813.52 453.069 1789.6 461.5 1759.39 461.5V463.5V465.5C1790.38 465.5 1815.35 456.831 1834.1 439.311L1832.74 437.85ZM1956.76 437.4L1955.35 438.814L1955.36 438.826L1955.37 438.838L1956.76 437.4ZM1956.76 233.55L1958.16 234.976L1958.16 234.976L1956.76 233.55ZM2078.26 218.7L2077.31 220.459L2077.32 220.463L2077.32 220.467L2078.26 218.7ZM2124.61 345.6V347.6H2126.61V345.6H2124.61ZM1969.81 345.6V343.6H1967.81V345.6H1969.81ZM1985.56 412.65L1984.13 414.044L1984.14 414.054L1984.15 414.064L1985.56 412.65ZM2064.31 419.85L2065.33 421.57L2065.34 421.565L2065.35 421.56L2064.31 419.85ZM2082.31 396V394H2080.69L2080.36 395.585L2082.31 396ZM2122.81 396L2124.8 396.259L2125.09 394H2122.81V396ZM2092.66 445.5L2093.8 447.146L2093.81 447.14L2093.82 447.133L2092.66 445.5ZM1969.81 314.1H1967.81V316.1H1969.81V314.1ZM2085.01 314.1V316.1H2087.01V314.1H2085.01ZM2069.71 256.5L2068.24 257.851L2068.26 257.873L2068.28 257.894L2069.71 256.5ZM1984.66 256.5L1983.21 255.127L1983.21 255.128L1984.66 256.5ZM2027.41 463.5V461.5C1998.74 461.5 1975.72 452.943 1958.15 435.962L1956.76 437.4L1955.37 438.838C1973.81 456.657 1997.88 465.5 2027.41 465.5V463.5ZM1956.76 437.4L1958.18 435.986C1940.94 418.745 1932.21 395.001 1932.21 364.5H1930.21H1928.21C1928.21 395.799 1937.19 420.655 1955.35 438.814L1956.76 437.4ZM1930.21 364.5H1932.21V306H1930.21H1928.21V364.5H1930.21ZM1930.21 306H1932.21C1932.21 275.497 1940.94 251.913 1958.16 234.976L1956.76 233.55L1955.36 232.124C1937.19 249.987 1928.21 274.703 1928.21 306H1930.21ZM1956.76 233.55L1958.16 234.976C1975.73 217.7 1998.75 209 2027.41 209V207V205C1997.87 205 1973.79 214 1955.36 232.124L1956.76 233.55ZM2027.41 207V209C2046.64 209 2063.25 212.845 2077.31 220.459L2078.26 218.7L2079.21 216.941C2064.47 208.955 2047.18 205 2027.41 205V207ZM2078.26 218.7L2077.32 220.467C2091.7 228.094 2102.82 238.781 2110.73 252.546L2112.46 251.55L2114.2 250.554C2105.9 236.119 2094.22 224.906 2079.2 216.933L2078.26 218.7ZM2112.46 251.55L2110.73 252.546C2118.62 266.292 2122.61 282.586 2122.61 301.5H2124.61H2126.61C2126.61 282.014 2122.5 265.008 2114.2 250.554L2112.46 251.55ZM2124.61 301.5H2122.61V345.6H2124.61H2126.61V301.5H2124.61ZM2124.61 345.6V343.6H1969.81V345.6V347.6H2124.61V345.6ZM1969.81 345.6H1967.81V369H1969.81H1971.81V345.6H1969.81ZM1969.81 369H1967.81C1967.81 387.702 1973.19 402.794 1984.13 414.044L1985.56 412.65L1987 411.256C1976.93 400.906 1971.81 386.898 1971.81 369H1969.81ZM1985.56 412.65L1984.15 414.064C1995.09 425.003 2009.58 430.4 2027.41 430.4V428.4V426.4C2010.44 426.4 1997.04 421.297 1986.98 411.236L1985.56 412.65ZM2027.41 428.4V430.4C2042.65 430.4 2055.34 427.506 2065.33 421.57L2064.31 419.85L2063.29 418.13C2054.09 423.594 2042.17 426.4 2027.41 426.4V428.4ZM2064.31 419.85L2065.35 421.56C2075.65 415.319 2082.04 406.935 2084.27 396.415L2082.31 396L2080.36 395.585C2078.39 404.865 2072.78 412.381 2063.28 418.14L2064.31 419.85ZM2082.31 396V398H2122.81V396V394H2082.31V396ZM2122.81 396L2120.83 395.741C2118.2 415.875 2108.46 431.882 2091.51 443.867L2092.66 445.5L2093.82 447.133C2111.66 434.518 2122.02 417.525 2124.8 396.259L2122.81 396ZM2092.66 445.5L2091.53 443.854C2074.53 455.574 2053.2 461.5 2027.41 461.5V463.5V465.5C2053.82 465.5 2075.99 459.426 2093.8 447.146L2092.66 445.5ZM1969.81 314.1V316.1H2085.01V314.1V312.1H1969.81V314.1ZM2085.01 314.1H2087.01V301.5H2085.01H2083.01V314.1H2085.01ZM2085.01 301.5H2087.01C2087.01 281.657 2081.82 266.09 2071.15 255.106L2069.71 256.5L2068.28 257.894C2078.01 267.91 2083.01 282.343 2083.01 301.5H2085.01ZM2069.71 256.5L2071.19 255.149C2060.82 243.837 2046.12 238.3 2027.41 238.3V240.3V242.3C2045.3 242.3 2058.81 247.563 2068.24 257.851L2069.71 256.5ZM2027.41 240.3V238.3C2008.7 238.3 1993.87 243.837 1983.21 255.127L1984.66 256.5L1986.12 257.873C1995.85 247.563 2009.53 242.3 2027.41 242.3V240.3ZM1984.66 256.5L1983.21 255.128C1972.85 266.113 1967.81 281.672 1967.81 301.5H1969.81H1971.81C1971.81 282.327 1976.68 267.887 1986.12 257.872L1984.66 256.5ZM1969.81 301.5H1967.81V314.1H1969.81H1971.81V301.5H1969.81ZM2203.64 459H2201.64V461H2203.64V459ZM2203.64 211.5V209.5H2201.64V211.5H2203.64ZM2244.14 211.5H2246.14V209.5H2244.14V211.5ZM2244.14 258.75H2242.14V260.75H2244.14V258.75ZM2244.59 258.75V260.75H2246.35L2246.57 259.003L2244.59 258.75ZM2264.84 220.5L2263.6 218.93L2264.84 220.5ZM2369.69 229.95L2368.24 231.336L2369.69 229.95ZM2391.74 459V461H2393.74V459H2391.74ZM2351.24 459H2349.24V461H2351.24V459ZM2336.84 256.5L2335.36 257.848L2335.38 257.87L2335.4 257.892L2336.84 256.5ZM2258.54 256.95L2257.08 255.578L2257.07 255.589L2257.06 255.6L2258.54 256.95ZM2244.14 459V461H2246.14V459H2244.14ZM2203.64 459H2205.64V211.5H2203.64H2201.64V459H2203.64ZM2203.64 211.5V213.5H2244.14V211.5V209.5H2203.64V211.5ZM2244.14 211.5H2242.14V258.75H2244.14H2246.14V211.5H2244.14ZM2244.14 258.75V260.75H2244.59V258.75V256.75H2244.14V258.75ZM2244.59 258.75L2246.57 259.003C2248.61 242.94 2255.15 230.697 2266.08 222.07L2264.84 220.5L2263.6 218.93C2251.73 228.303 2244.76 241.559 2242.6 258.497L2244.59 258.75ZM2264.84 220.5L2266.08 222.07C2277.03 213.423 2291.7 209 2310.29 209V207V205C2291.07 205 2275.44 209.577 2263.6 218.93L2264.84 220.5ZM2310.29 207V209C2334.74 209 2353.99 216.496 2368.24 231.336L2369.69 229.95L2371.13 228.564C2355.99 212.804 2335.63 205 2310.29 205V207ZM2369.69 229.95L2368.24 231.336C2382.5 246.177 2389.74 266.484 2389.74 292.5H2391.74H2393.74C2393.74 265.716 2386.27 244.323 2371.13 228.564L2369.69 229.95ZM2391.74 292.5H2389.74V459H2391.74H2393.74V292.5H2391.74ZM2391.74 459V457H2351.24V459V461H2391.74V459ZM2351.24 459H2353.24V299.7H2351.24H2349.24V459H2351.24ZM2351.24 299.7H2353.24C2353.24 280.476 2348.35 265.501 2338.27 255.108L2336.84 256.5L2335.4 257.892C2344.52 267.299 2349.24 281.124 2349.24 299.7H2351.24ZM2336.84 256.5L2338.31 255.152C2328.57 244.464 2315.24 239.2 2298.59 239.2V241.2V243.2C2314.33 243.2 2326.5 248.136 2335.36 257.848L2336.84 256.5ZM2298.59 241.2V239.2C2281.33 239.2 2267.42 244.611 2257.08 255.578L2258.54 256.95L2259.99 258.322C2269.45 248.289 2282.24 243.2 2298.59 243.2V241.2ZM2258.54 256.95L2257.06 255.6C2247.02 266.582 2242.14 281.978 2242.14 301.5H2244.14H2246.14C2246.14 282.622 2250.85 268.318 2260.01 258.3L2258.54 256.95ZM2244.14 301.5H2242.14V459H2244.14H2246.14V301.5H2244.14ZM2244.14 459V457H2203.64V459V461H2244.14V459ZM2493.26 438.75L2491.77 440.08L2491.77 440.088L2491.78 440.095L2493.26 438.75ZM2493.26 231.75L2494.75 233.08L2493.26 231.75ZM2598.56 220.95L2597.34 222.531L2597.34 222.538L2597.35 222.545L2598.56 220.95ZM2620.61 258.75L2618.63 259.048L2618.89 260.75H2620.61V258.75ZM2621.06 258.75V260.75H2623.09L2623.06 258.718L2621.06 258.75ZM2620.16 202.5H2618.16V202.516L2618.16 202.532L2620.16 202.5ZM2620.16 130.5V128.5H2618.16V130.5H2620.16ZM2660.66 130.5H2662.66V128.5H2660.66V130.5ZM2660.66 459V461H2662.66V459H2660.66ZM2620.16 459H2618.16V461H2620.16V459ZM2620.16 411.75H2622.16V409.75H2620.16V411.75ZM2619.71 411.75V409.75H2617.95L2617.73 411.493L2619.71 411.75ZM2598.56 450L2599.76 451.6L2599.77 451.591L2599.79 451.581L2598.56 450ZM2526.11 255.6L2527.45 257.082L2527.47 257.071L2527.48 257.059L2526.11 255.6ZM2552.66 463.5V461.5C2528.56 461.5 2509.32 453.442 2494.74 437.405L2493.26 438.75L2491.78 440.095C2507.2 457.058 2527.56 465.5 2552.66 465.5V463.5ZM2493.26 438.75L2494.75 437.42C2480.46 421.378 2473.21 399.549 2473.21 371.7H2471.21H2469.21C2469.21 400.251 2476.66 423.122 2491.77 440.08L2493.26 438.75ZM2471.21 371.7H2473.21V299.25H2471.21H2469.21V371.7H2471.21ZM2471.21 299.25H2473.21C2473.21 271.095 2480.47 249.118 2494.75 233.08L2493.26 231.75L2491.77 230.42C2476.66 247.382 2469.21 270.405 2469.21 299.25H2471.21ZM2493.26 231.75L2494.75 233.08C2509.02 217.063 2528.25 209 2552.66 209V207V205C2527.27 205 2506.9 213.437 2491.77 230.42L2493.26 231.75ZM2552.66 207V209C2570.92 209 2585.76 213.559 2597.34 222.531L2598.56 220.95L2599.79 219.369C2587.36 209.741 2571.6 205 2552.66 205V207ZM2598.56 220.95L2597.35 222.545C2609.22 231.516 2616.31 243.64 2618.63 259.048L2620.61 258.75L2622.59 258.451C2620.11 242.06 2612.5 228.984 2599.77 219.355L2598.56 220.95ZM2620.61 258.75V260.75H2621.06V258.75V256.75H2620.61V258.75ZM2621.06 258.75L2623.06 258.718L2622.16 202.468L2620.16 202.5L2618.16 202.532L2619.06 258.782L2621.06 258.75ZM2620.16 202.5H2622.16V130.5H2620.16H2618.16V202.5H2620.16ZM2620.16 130.5V132.5H2660.66V130.5V128.5H2620.16V130.5ZM2660.66 130.5H2658.66V459H2660.66H2662.66V130.5H2660.66ZM2660.66 459V457H2620.16V459V461H2660.66V459ZM2620.16 459H2622.16V411.75H2620.16H2618.16V459H2620.16ZM2620.16 411.75V409.75H2619.71V411.75V413.75H2620.16V411.75ZM2619.71 411.75L2617.73 411.493C2615.69 427.213 2608.88 439.469 2597.34 448.419L2598.56 450L2599.79 451.581C2612.24 441.931 2619.53 428.687 2621.69 412.007L2619.71 411.75ZM2598.56 450L2597.36 448.4C2585.78 457.083 2570.93 461.5 2552.66 461.5V463.5V465.5C2571.59 465.5 2587.34 460.917 2599.76 451.6L2598.56 450ZM2566.16 428.4V430.4C2583.41 430.4 2597.19 424.989 2607.24 414L2605.76 412.65L2604.28 411.3C2595.13 421.311 2582.51 426.4 2566.16 426.4V428.4ZM2605.76 412.65L2607.24 414C2617.27 403.029 2622.16 387.942 2622.16 369H2620.16H2618.16C2618.16 387.258 2613.45 401.271 2604.28 411.3L2605.76 412.65ZM2620.16 369H2622.16V301.5H2620.16H2618.16V369H2620.16ZM2620.16 301.5H2622.16C2622.16 282.558 2617.27 267.471 2607.24 256.5L2605.76 257.85L2604.28 259.2C2613.45 269.229 2618.16 283.242 2618.16 301.5H2620.16ZM2605.76 257.85L2607.24 256.5C2597.19 245.511 2583.41 240.1 2566.16 240.1V242.1V244.1C2582.51 244.1 2595.13 249.189 2604.28 259.2L2605.76 257.85ZM2566.16 242.1V240.1C2548.71 240.1 2534.81 244.699 2524.74 254.141L2526.11 255.6L2527.48 257.059C2536.61 248.501 2549.41 244.1 2566.16 244.1V242.1ZM2526.11 255.6L2524.77 254.118C2514.56 263.369 2509.71 278.605 2509.71 299.25H2511.71H2513.71C2513.71 279.095 2518.46 265.231 2527.45 257.082L2526.11 255.6ZM2511.71 299.25H2509.71V371.25H2511.71H2513.71V299.25H2511.71ZM2511.71 371.25H2509.71C2509.71 391.614 2514.57 406.821 2524.74 416.359L2526.11 414.9L2527.48 413.441C2518.45 404.979 2513.71 391.086 2513.71 371.25H2511.71ZM2526.11 414.9L2524.74 416.359C2534.81 425.801 2548.71 430.4 2566.16 430.4V428.4V426.4C2549.41 426.4 2536.61 421.999 2527.48 413.441L2526.11 414.9Z" fill="white" mask="url(#path-1-outside-1_73_50)"/>
<rect y="14" width="650" height="650" rx="100" fill="#000001"/>
<path d="M224.768 148.917H198.071V176H224.768V148.917Z" fill="#94E2D5"/>
<path d="M251.464 148.917H224.768V176H251.464V148.917Z" fill="#94E2D5"/>
<path d="M304.858 148.917H278.161V176H304.858V148.917Z" fill="#94E2D5"/>
<path d="M331.554 148.917H304.857V176H331.554V148.917Z" fill="#94E2D5"/>
<path d="M224.768 176H198.071V203.083H224.768V176Z" fill="#94E2D5"/>
<path d="M251.464 176H224.768V203.083H251.464V176Z" fill="#94E2D5"/>
<path d="M304.858 176H278.161V203.083H304.858V176Z" fill="#94E2D5"/>
<path d="M331.554 176H304.857V203.083H331.554V176Z" fill="#94E2D5"/>
<path d="M304.858 230.167H278.161V257.25H304.858V230.167Z" fill="#94E2D5"/>
<path d="M331.554 230.167H304.857V257.25H331.554V230.167Z" fill="#94E2D5"/>
<path d="M384.946 230.167H358.25V257.25H384.946V230.167Z" fill="#94E2D5"/>
<path d="M411.643 230.167H384.946V257.25H411.643V230.167Z" fill="#94E2D5"/>
<path d="M304.858 257.25H278.161V284.333H304.858V257.25Z" fill="#94E2D5"/>
<path d="M331.554 257.25H304.857V284.333H331.554V257.25Z" fill="#94E2D5"/>
<path d="M384.946 257.25H358.25V284.333H384.946V257.25Z" fill="#94E2D5"/>
<path d="M411.643 257.25H384.946V284.333H411.643V257.25Z" fill="#94E2D5"/>
<path d="M384.946 311.417H358.25V338.5H384.946V311.417Z" fill="#94E2D5"/>
<path d="M411.643 311.417H384.946V338.5H411.643V311.417Z" fill="#94E2D5"/>
<path d="M465.035 311.417H438.339V338.5H465.035V311.417Z" fill="#94E2D5"/>
<path d="M491.733 311.417H465.036V338.5H491.733V311.417Z" fill="#94E2D5"/>
<path d="M384.946 338.5H358.25V365.583H384.946V338.5Z" fill="#94E2D5"/>
<path d="M411.643 338.5H384.946V365.583H411.643V338.5Z" fill="#94E2D5"/>
<path d="M465.035 338.5H438.339V365.583H465.035V338.5Z" fill="#94E2D5"/>
<path d="M491.733 338.5H465.036V365.583H491.733V338.5Z" fill="#94E2D5"/>
<path d="M304.858 392.667H278.161V419.75H304.858V392.667Z" fill="#94E2D5"/>
<path d="M331.554 392.667H304.857V419.75H331.554V392.667Z" fill="#94E2D5"/>
<path d="M384.946 392.667H358.25V419.75H384.946V392.667Z" fill="#94E2D5"/>
<path d="M411.643 392.667H384.946V419.75H411.643V392.667Z" fill="#94E2D5"/>
<path d="M304.858 419.75H278.161V446.833H304.858V419.75Z" fill="#94E2D5"/>
<path d="M331.554 419.75H304.857V446.833H331.554V419.75Z" fill="#94E2D5"/>
<path d="M384.946 419.75H358.25V446.833H384.946V419.75Z" fill="#94E2D5"/>
<path d="M411.643 419.75H384.946V446.833H411.643V419.75Z" fill="#94E2D5"/>
<path d="M224.768 473.917H198.071V501H224.768V473.917Z" fill="#94E2D5"/>
<path d="M251.464 473.917H224.768V501H251.464V473.917Z" fill="#94E2D5"/>
<path d="M304.858 473.917H278.161V501H304.858V473.917Z" fill="#94E2D5"/>
<path d="M331.554 473.917H304.857V501H331.554V473.917Z" fill="#94E2D5"/>
<path d="M224.768 501H198.071V528.083H224.768V501Z" fill="#94E2D5"/>
<path d="M251.464 501H224.768V528.083H251.464V501Z" fill="#94E2D5"/>
<path d="M304.858 501H278.161V528.083H304.858V501Z" fill="#94E2D5"/>
<path d="M331.554 501H304.857V528.083H331.554V501Z" fill="#94E2D5"/>
</svg>
